<mxfile host="Electron" modified="2023-07-16T09:51:47.463Z" agent="Mozilla/5.0 (Windows NT 10.0; Win64; x64) AppleWebKit/537.36 (KHTML, like Gecko) draw.io/21.6.1 Chrome/112.0.5615.204 Electron/24.6.1 Safari/537.36" etag="Fv8OUBgG_KePG1vxo-gp" version="21.6.1" type="device" pages="6">
  <diagram id="hbZ8gTFG8YTbNE7Hpmpl" name="テンプレート">
    <mxGraphModel dx="712" dy="827" grid="1" gridSize="10" guides="1" tooltips="1" connect="1" arrows="1" fold="1" page="1" pageScale="1" pageWidth="827" pageHeight="1169" math="0" shadow="0">
      <root>
        <mxCell id="0" />
        <mxCell id="1" parent="0" />
        <mxCell id="gaahYjkAzWeeXzMa28MZ-1" value="&lt;h1&gt;テンプレート&lt;/h1&gt;&lt;div&gt;ここにテーブルの説明など&lt;/div&gt;" style="text;html=1;strokeColor=none;fillColor=none;spacing=5;spacingTop=-20;whiteSpace=wrap;overflow=hidden;rounded=0;" vertex="1" parent="1">
          <mxGeometry x="40" y="40" width="760" height="120" as="geometry" />
        </mxCell>
        <mxCell id="gaahYjkAzWeeXzMa28MZ-2" value="&lt;span style=&quot;font-size: 24px;&quot;&gt;&lt;b&gt;カラム&lt;/b&gt;&lt;/span&gt;" style="text;html=1;strokeColor=none;fillColor=none;align=center;verticalAlign=middle;whiteSpace=wrap;rounded=0;" vertex="1" parent="1">
          <mxGeometry x="40" y="160" width="100" height="30" as="geometry" />
        </mxCell>
        <mxCell id="gaahYjkAzWeeXzMa28MZ-3" style="edgeStyle=orthogonalEdgeStyle;rounded=0;orthogonalLoop=1;jettySize=auto;html=1;exitX=0.5;exitY=1;exitDx=0;exitDy=0;" edge="1" parent="1" source="gaahYjkAzWeeXzMa28MZ-2" target="gaahYjkAzWeeXzMa28MZ-2">
          <mxGeometry relative="1" as="geometry" />
        </mxCell>
        <mxCell id="gaahYjkAzWeeXzMa28MZ-4" value="&lt;span style=&quot;font-size: 18px;&quot;&gt;&lt;b&gt;id&lt;/b&gt;&lt;/span&gt;" style="text;html=1;strokeColor=none;fillColor=none;align=right;verticalAlign=middle;whiteSpace=wrap;rounded=0;" vertex="1" parent="1">
          <mxGeometry x="170" y="240" width="60" height="30" as="geometry" />
        </mxCell>
        <mxCell id="gaahYjkAzWeeXzMa28MZ-5" value="" style="endArrow=none;html=1;rounded=0;" edge="1" parent="1">
          <mxGeometry width="50" height="50" relative="1" as="geometry">
            <mxPoint x="240" y="750" as="sourcePoint" />
            <mxPoint x="240" y="180" as="targetPoint" />
          </mxGeometry>
        </mxCell>
        <mxCell id="gaahYjkAzWeeXzMa28MZ-6" value="&lt;b style=&quot;&quot;&gt;&lt;font style=&quot;font-size: 18px;&quot;&gt;カラム名&lt;/font&gt;&lt;/b&gt;" style="text;html=1;strokeColor=none;fillColor=none;align=right;verticalAlign=middle;whiteSpace=wrap;rounded=0;" vertex="1" parent="1">
          <mxGeometry x="130" y="200" width="100" height="30" as="geometry" />
        </mxCell>
        <mxCell id="gaahYjkAzWeeXzMa28MZ-7" value="" style="endArrow=none;html=1;rounded=0;" edge="1" parent="1">
          <mxGeometry width="50" height="50" relative="1" as="geometry">
            <mxPoint x="155" y="230" as="sourcePoint" />
            <mxPoint x="800" y="230" as="targetPoint" />
          </mxGeometry>
        </mxCell>
        <mxCell id="gaahYjkAzWeeXzMa28MZ-8" value="" style="endArrow=none;html=1;rounded=0;" edge="1" parent="1">
          <mxGeometry width="50" height="50" relative="1" as="geometry">
            <mxPoint x="360" y="750" as="sourcePoint" />
            <mxPoint x="360" y="180" as="targetPoint" />
          </mxGeometry>
        </mxCell>
        <mxCell id="gaahYjkAzWeeXzMa28MZ-9" value="" style="endArrow=none;html=1;rounded=0;" edge="1" parent="1">
          <mxGeometry width="50" height="50" relative="1" as="geometry">
            <mxPoint x="480" y="750" as="sourcePoint" />
            <mxPoint x="480" y="180" as="targetPoint" />
          </mxGeometry>
        </mxCell>
        <mxCell id="gaahYjkAzWeeXzMa28MZ-10" value="" style="endArrow=none;html=1;rounded=0;" edge="1" parent="1">
          <mxGeometry width="50" height="50" relative="1" as="geometry">
            <mxPoint x="600" y="750" as="sourcePoint" />
            <mxPoint x="600" y="180" as="targetPoint" />
          </mxGeometry>
        </mxCell>
        <mxCell id="gaahYjkAzWeeXzMa28MZ-11" value="&lt;span style=&quot;font-size: 18px;&quot;&gt;&lt;b&gt;データ型&lt;/b&gt;&lt;/span&gt;" style="text;html=1;strokeColor=none;fillColor=none;align=center;verticalAlign=middle;whiteSpace=wrap;rounded=0;" vertex="1" parent="1">
          <mxGeometry x="250" y="200" width="100" height="30" as="geometry" />
        </mxCell>
        <mxCell id="gaahYjkAzWeeXzMa28MZ-12" value="&lt;span style=&quot;font-size: 18px;&quot;&gt;&lt;b&gt;Null許容&lt;/b&gt;&lt;/span&gt;" style="text;html=1;strokeColor=none;fillColor=none;align=center;verticalAlign=middle;whiteSpace=wrap;rounded=0;" vertex="1" parent="1">
          <mxGeometry x="370" y="200" width="100" height="30" as="geometry" />
        </mxCell>
        <mxCell id="gaahYjkAzWeeXzMa28MZ-13" value="&lt;span style=&quot;font-size: 18px;&quot;&gt;&lt;b&gt;デフォルト&lt;/b&gt;&lt;/span&gt;" style="text;html=1;strokeColor=none;fillColor=none;align=center;verticalAlign=middle;whiteSpace=wrap;rounded=0;" vertex="1" parent="1">
          <mxGeometry x="490" y="200" width="100" height="30" as="geometry" />
        </mxCell>
        <mxCell id="gaahYjkAzWeeXzMa28MZ-14" value="&lt;span style=&quot;font-size: 18px;&quot;&gt;&lt;b&gt;備考&lt;/b&gt;&lt;/span&gt;" style="text;html=1;strokeColor=none;fillColor=none;align=center;verticalAlign=middle;whiteSpace=wrap;rounded=0;" vertex="1" parent="1">
          <mxGeometry x="650" y="200" width="100" height="30" as="geometry" />
        </mxCell>
        <mxCell id="gaahYjkAzWeeXzMa28MZ-15" value="&lt;span style=&quot;font-size: 18px;&quot;&gt;&lt;b&gt;INT&lt;/b&gt;&lt;/span&gt;" style="text;html=1;strokeColor=none;fillColor=none;align=center;verticalAlign=middle;whiteSpace=wrap;rounded=0;" vertex="1" parent="1">
          <mxGeometry x="250" y="240" width="100" height="30" as="geometry" />
        </mxCell>
        <mxCell id="gaahYjkAzWeeXzMa28MZ-16" value="&lt;span style=&quot;font-size: 18px;&quot;&gt;&lt;b&gt;Not Null&lt;/b&gt;&lt;/span&gt;" style="text;html=1;strokeColor=none;fillColor=none;align=center;verticalAlign=middle;whiteSpace=wrap;rounded=0;" vertex="1" parent="1">
          <mxGeometry x="370" y="240" width="100" height="30" as="geometry" />
        </mxCell>
        <mxCell id="gaahYjkAzWeeXzMa28MZ-17" value="&lt;span style=&quot;font-size: 18px;&quot;&gt;&lt;b&gt;PK&lt;/b&gt;&lt;/span&gt;" style="text;html=1;strokeColor=none;fillColor=none;align=center;verticalAlign=middle;whiteSpace=wrap;rounded=0;" vertex="1" parent="1">
          <mxGeometry x="10" y="240" width="100" height="30" as="geometry" />
        </mxCell>
        <mxCell id="gaahYjkAzWeeXzMa28MZ-18" value="&lt;span style=&quot;font-size: 18px;&quot;&gt;&lt;b&gt;FK&lt;/b&gt;&lt;/span&gt;" style="text;html=1;strokeColor=none;fillColor=none;align=center;verticalAlign=middle;whiteSpace=wrap;rounded=0;" vertex="1" parent="1">
          <mxGeometry x="10" y="280" width="100" height="30" as="geometry" />
        </mxCell>
        <mxCell id="gaahYjkAzWeeXzMa28MZ-19" value="&lt;font style=&quot;font-size: 12px;&quot;&gt;AUTO_INCREMENT&lt;/font&gt;" style="text;html=1;strokeColor=none;fillColor=none;align=left;verticalAlign=middle;whiteSpace=wrap;rounded=0;" vertex="1" parent="1">
          <mxGeometry x="610" y="240" width="190" height="30" as="geometry" />
        </mxCell>
        <mxCell id="gaahYjkAzWeeXzMa28MZ-20" value="&lt;span style=&quot;font-size: 18px;&quot;&gt;&lt;b&gt;foreign_id&lt;/b&gt;&lt;/span&gt;" style="text;html=1;strokeColor=none;fillColor=none;align=right;verticalAlign=middle;whiteSpace=wrap;rounded=0;" vertex="1" parent="1">
          <mxGeometry x="170" y="280" width="60" height="30" as="geometry" />
        </mxCell>
        <mxCell id="gaahYjkAzWeeXzMa28MZ-21" value="&lt;span style=&quot;font-size: 18px;&quot;&gt;&lt;b&gt;INT&lt;/b&gt;&lt;/span&gt;" style="text;html=1;strokeColor=none;fillColor=none;align=center;verticalAlign=middle;whiteSpace=wrap;rounded=0;" vertex="1" parent="1">
          <mxGeometry x="250" y="280" width="100" height="30" as="geometry" />
        </mxCell>
        <mxCell id="gaahYjkAzWeeXzMa28MZ-23" value="&lt;font style=&quot;font-size: 12px;&quot;&gt;Foreignsから参照&lt;/font&gt;" style="text;html=1;strokeColor=none;fillColor=none;align=left;verticalAlign=middle;whiteSpace=wrap;rounded=0;" vertex="1" parent="1">
          <mxGeometry x="610" y="280" width="190" height="30" as="geometry" />
        </mxCell>
      </root>
    </mxGraphModel>
  </diagram>
  <diagram id="R2lEEEUBdFMjLlhIrx00" name="ER図">
    <mxGraphModel dx="1674" dy="836" grid="1" gridSize="10" guides="1" tooltips="1" connect="1" arrows="1" fold="1" page="1" pageScale="1" pageWidth="850" pageHeight="1100" math="0" shadow="0" extFonts="Permanent Marker^https://fonts.googleapis.com/css?family=Permanent+Marker">
      <root>
        <mxCell id="0" />
        <mxCell id="1" parent="0" />
        <mxCell id="IBb9JCJCjUCDyRBKX6f4-1" value="Users" style="shape=table;startSize=30;container=1;collapsible=1;childLayout=tableLayout;fixedRows=1;rowLines=0;fontStyle=1;align=center;resizeLast=1;html=1;" parent="1" vertex="1">
          <mxGeometry x="40" y="100" width="180" height="180" as="geometry" />
        </mxCell>
        <mxCell id="IBb9JCJCjUCDyRBKX6f4-2" value="" style="shape=tableRow;horizontal=0;startSize=0;swimlaneHead=0;swimlaneBody=0;fillColor=none;collapsible=0;dropTarget=0;points=[[0,0.5],[1,0.5]];portConstraint=eastwest;top=0;left=0;right=0;bottom=1;" parent="IBb9JCJCjUCDyRBKX6f4-1" vertex="1">
          <mxGeometry y="30" width="180" height="30" as="geometry" />
        </mxCell>
        <mxCell id="IBb9JCJCjUCDyRBKX6f4-3" value="PK" style="shape=partialRectangle;connectable=0;fillColor=none;top=0;left=0;bottom=0;right=0;fontStyle=1;overflow=hidden;whiteSpace=wrap;html=1;" parent="IBb9JCJCjUCDyRBKX6f4-2" vertex="1">
          <mxGeometry width="30" height="30" as="geometry">
            <mxRectangle width="30" height="30" as="alternateBounds" />
          </mxGeometry>
        </mxCell>
        <mxCell id="IBb9JCJCjUCDyRBKX6f4-4" value="id" style="shape=partialRectangle;connectable=0;fillColor=none;top=0;left=0;bottom=0;right=0;align=left;spacingLeft=6;fontStyle=5;overflow=hidden;whiteSpace=wrap;html=1;" parent="IBb9JCJCjUCDyRBKX6f4-2" vertex="1">
          <mxGeometry x="30" width="150" height="30" as="geometry">
            <mxRectangle width="150" height="30" as="alternateBounds" />
          </mxGeometry>
        </mxCell>
        <mxCell id="IBb9JCJCjUCDyRBKX6f4-5" value="" style="shape=tableRow;horizontal=0;startSize=0;swimlaneHead=0;swimlaneBody=0;fillColor=none;collapsible=0;dropTarget=0;points=[[0,0.5],[1,0.5]];portConstraint=eastwest;top=0;left=0;right=0;bottom=0;" parent="IBb9JCJCjUCDyRBKX6f4-1" vertex="1">
          <mxGeometry y="60" width="180" height="30" as="geometry" />
        </mxCell>
        <mxCell id="IBb9JCJCjUCDyRBKX6f4-6" value="" style="shape=partialRectangle;connectable=0;fillColor=none;top=0;left=0;bottom=0;right=0;editable=1;overflow=hidden;whiteSpace=wrap;html=1;" parent="IBb9JCJCjUCDyRBKX6f4-5" vertex="1">
          <mxGeometry width="30" height="30" as="geometry">
            <mxRectangle width="30" height="30" as="alternateBounds" />
          </mxGeometry>
        </mxCell>
        <mxCell id="IBb9JCJCjUCDyRBKX6f4-7" value="name" style="shape=partialRectangle;connectable=0;fillColor=none;top=0;left=0;bottom=0;right=0;align=left;spacingLeft=6;overflow=hidden;whiteSpace=wrap;html=1;" parent="IBb9JCJCjUCDyRBKX6f4-5" vertex="1">
          <mxGeometry x="30" width="150" height="30" as="geometry">
            <mxRectangle width="150" height="30" as="alternateBounds" />
          </mxGeometry>
        </mxCell>
        <mxCell id="q49EzHe7b03uKvc_Gd-7-1" style="shape=tableRow;horizontal=0;startSize=0;swimlaneHead=0;swimlaneBody=0;fillColor=none;collapsible=0;dropTarget=0;points=[[0,0.5],[1,0.5]];portConstraint=eastwest;top=0;left=0;right=0;bottom=0;" vertex="1" parent="IBb9JCJCjUCDyRBKX6f4-1">
          <mxGeometry y="90" width="180" height="30" as="geometry" />
        </mxCell>
        <mxCell id="q49EzHe7b03uKvc_Gd-7-2" style="shape=partialRectangle;connectable=0;fillColor=none;top=0;left=0;bottom=0;right=0;editable=1;overflow=hidden;whiteSpace=wrap;html=1;" vertex="1" parent="q49EzHe7b03uKvc_Gd-7-1">
          <mxGeometry width="30" height="30" as="geometry">
            <mxRectangle width="30" height="30" as="alternateBounds" />
          </mxGeometry>
        </mxCell>
        <mxCell id="q49EzHe7b03uKvc_Gd-7-3" value="description" style="shape=partialRectangle;connectable=0;fillColor=none;top=0;left=0;bottom=0;right=0;align=left;spacingLeft=6;overflow=hidden;whiteSpace=wrap;html=1;" vertex="1" parent="q49EzHe7b03uKvc_Gd-7-1">
          <mxGeometry x="30" width="150" height="30" as="geometry">
            <mxRectangle width="150" height="30" as="alternateBounds" />
          </mxGeometry>
        </mxCell>
        <mxCell id="IBb9JCJCjUCDyRBKX6f4-8" value="" style="shape=tableRow;horizontal=0;startSize=0;swimlaneHead=0;swimlaneBody=0;fillColor=none;collapsible=0;dropTarget=0;points=[[0,0.5],[1,0.5]];portConstraint=eastwest;top=0;left=0;right=0;bottom=0;" parent="IBb9JCJCjUCDyRBKX6f4-1" vertex="1">
          <mxGeometry y="120" width="180" height="30" as="geometry" />
        </mxCell>
        <mxCell id="IBb9JCJCjUCDyRBKX6f4-9" value="" style="shape=partialRectangle;connectable=0;fillColor=none;top=0;left=0;bottom=0;right=0;editable=1;overflow=hidden;whiteSpace=wrap;html=1;" parent="IBb9JCJCjUCDyRBKX6f4-8" vertex="1">
          <mxGeometry width="30" height="30" as="geometry">
            <mxRectangle width="30" height="30" as="alternateBounds" />
          </mxGeometry>
        </mxCell>
        <mxCell id="IBb9JCJCjUCDyRBKX6f4-10" value="password_hash" style="shape=partialRectangle;connectable=0;fillColor=none;top=0;left=0;bottom=0;right=0;align=left;spacingLeft=6;overflow=hidden;whiteSpace=wrap;html=1;" parent="IBb9JCJCjUCDyRBKX6f4-8" vertex="1">
          <mxGeometry x="30" width="150" height="30" as="geometry">
            <mxRectangle width="150" height="30" as="alternateBounds" />
          </mxGeometry>
        </mxCell>
        <mxCell id="IBb9JCJCjUCDyRBKX6f4-11" value="" style="shape=tableRow;horizontal=0;startSize=0;swimlaneHead=0;swimlaneBody=0;fillColor=none;collapsible=0;dropTarget=0;points=[[0,0.5],[1,0.5]];portConstraint=eastwest;top=0;left=0;right=0;bottom=0;" parent="IBb9JCJCjUCDyRBKX6f4-1" vertex="1">
          <mxGeometry y="150" width="180" height="30" as="geometry" />
        </mxCell>
        <mxCell id="IBb9JCJCjUCDyRBKX6f4-12" value="" style="shape=partialRectangle;connectable=0;fillColor=none;top=0;left=0;bottom=0;right=0;editable=1;overflow=hidden;whiteSpace=wrap;html=1;" parent="IBb9JCJCjUCDyRBKX6f4-11" vertex="1">
          <mxGeometry width="30" height="30" as="geometry">
            <mxRectangle width="30" height="30" as="alternateBounds" />
          </mxGeometry>
        </mxCell>
        <mxCell id="IBb9JCJCjUCDyRBKX6f4-13" value="signup_date" style="shape=partialRectangle;connectable=0;fillColor=none;top=0;left=0;bottom=0;right=0;align=left;spacingLeft=6;overflow=hidden;whiteSpace=wrap;html=1;" parent="IBb9JCJCjUCDyRBKX6f4-11" vertex="1">
          <mxGeometry x="30" width="150" height="30" as="geometry">
            <mxRectangle width="150" height="30" as="alternateBounds" />
          </mxGeometry>
        </mxCell>
        <mxCell id="IBb9JCJCjUCDyRBKX6f4-14" value="Quizzes" style="shape=table;startSize=30;container=1;collapsible=1;childLayout=tableLayout;fixedRows=1;rowLines=0;fontStyle=1;align=center;resizeLast=1;html=1;" parent="1" vertex="1">
          <mxGeometry x="320" y="100" width="180" height="210" as="geometry" />
        </mxCell>
        <mxCell id="IBb9JCJCjUCDyRBKX6f4-15" value="" style="shape=tableRow;horizontal=0;startSize=0;swimlaneHead=0;swimlaneBody=0;fillColor=none;collapsible=0;dropTarget=0;points=[[0,0.5],[1,0.5]];portConstraint=eastwest;top=0;left=0;right=0;bottom=1;" parent="IBb9JCJCjUCDyRBKX6f4-14" vertex="1">
          <mxGeometry y="30" width="180" height="30" as="geometry" />
        </mxCell>
        <mxCell id="IBb9JCJCjUCDyRBKX6f4-16" value="PK" style="shape=partialRectangle;connectable=0;fillColor=none;top=0;left=0;bottom=0;right=0;fontStyle=1;overflow=hidden;whiteSpace=wrap;html=1;" parent="IBb9JCJCjUCDyRBKX6f4-15" vertex="1">
          <mxGeometry width="30" height="30" as="geometry">
            <mxRectangle width="30" height="30" as="alternateBounds" />
          </mxGeometry>
        </mxCell>
        <mxCell id="IBb9JCJCjUCDyRBKX6f4-17" value="id" style="shape=partialRectangle;connectable=0;fillColor=none;top=0;left=0;bottom=0;right=0;align=left;spacingLeft=6;fontStyle=5;overflow=hidden;whiteSpace=wrap;html=1;" parent="IBb9JCJCjUCDyRBKX6f4-15" vertex="1">
          <mxGeometry x="30" width="150" height="30" as="geometry">
            <mxRectangle width="150" height="30" as="alternateBounds" />
          </mxGeometry>
        </mxCell>
        <mxCell id="IBb9JCJCjUCDyRBKX6f4-18" value="" style="shape=tableRow;horizontal=0;startSize=0;swimlaneHead=0;swimlaneBody=0;fillColor=none;collapsible=0;dropTarget=0;points=[[0,0.5],[1,0.5]];portConstraint=eastwest;top=0;left=0;right=0;bottom=0;" parent="IBb9JCJCjUCDyRBKX6f4-14" vertex="1">
          <mxGeometry y="60" width="180" height="30" as="geometry" />
        </mxCell>
        <mxCell id="IBb9JCJCjUCDyRBKX6f4-19" value="" style="shape=partialRectangle;connectable=0;fillColor=none;top=0;left=0;bottom=0;right=0;editable=1;overflow=hidden;whiteSpace=wrap;html=1;" parent="IBb9JCJCjUCDyRBKX6f4-18" vertex="1">
          <mxGeometry width="30" height="30" as="geometry">
            <mxRectangle width="30" height="30" as="alternateBounds" />
          </mxGeometry>
        </mxCell>
        <mxCell id="IBb9JCJCjUCDyRBKX6f4-20" value="title" style="shape=partialRectangle;connectable=0;fillColor=none;top=0;left=0;bottom=0;right=0;align=left;spacingLeft=6;overflow=hidden;whiteSpace=wrap;html=1;" parent="IBb9JCJCjUCDyRBKX6f4-18" vertex="1">
          <mxGeometry x="30" width="150" height="30" as="geometry">
            <mxRectangle width="150" height="30" as="alternateBounds" />
          </mxGeometry>
        </mxCell>
        <mxCell id="IBb9JCJCjUCDyRBKX6f4-21" value="" style="shape=tableRow;horizontal=0;startSize=0;swimlaneHead=0;swimlaneBody=0;fillColor=none;collapsible=0;dropTarget=0;points=[[0,0.5],[1,0.5]];portConstraint=eastwest;top=0;left=0;right=0;bottom=0;" parent="IBb9JCJCjUCDyRBKX6f4-14" vertex="1">
          <mxGeometry y="90" width="180" height="30" as="geometry" />
        </mxCell>
        <mxCell id="IBb9JCJCjUCDyRBKX6f4-22" value="" style="shape=partialRectangle;connectable=0;fillColor=none;top=0;left=0;bottom=0;right=0;editable=1;overflow=hidden;whiteSpace=wrap;html=1;" parent="IBb9JCJCjUCDyRBKX6f4-21" vertex="1">
          <mxGeometry width="30" height="30" as="geometry">
            <mxRectangle width="30" height="30" as="alternateBounds" />
          </mxGeometry>
        </mxCell>
        <mxCell id="IBb9JCJCjUCDyRBKX6f4-23" value="content" style="shape=partialRectangle;connectable=0;fillColor=none;top=0;left=0;bottom=0;right=0;align=left;spacingLeft=6;overflow=hidden;whiteSpace=wrap;html=1;" parent="IBb9JCJCjUCDyRBKX6f4-21" vertex="1">
          <mxGeometry x="30" width="150" height="30" as="geometry">
            <mxRectangle width="150" height="30" as="alternateBounds" />
          </mxGeometry>
        </mxCell>
        <mxCell id="IBb9JCJCjUCDyRBKX6f4-69" style="shape=tableRow;horizontal=0;startSize=0;swimlaneHead=0;swimlaneBody=0;fillColor=none;collapsible=0;dropTarget=0;points=[[0,0.5],[1,0.5]];portConstraint=eastwest;top=0;left=0;right=0;bottom=0;" parent="IBb9JCJCjUCDyRBKX6f4-14" vertex="1">
          <mxGeometry y="120" width="180" height="30" as="geometry" />
        </mxCell>
        <mxCell id="IBb9JCJCjUCDyRBKX6f4-70" style="shape=partialRectangle;connectable=0;fillColor=none;top=0;left=0;bottom=0;right=0;editable=1;overflow=hidden;whiteSpace=wrap;html=1;" parent="IBb9JCJCjUCDyRBKX6f4-69" vertex="1">
          <mxGeometry width="30" height="30" as="geometry">
            <mxRectangle width="30" height="30" as="alternateBounds" />
          </mxGeometry>
        </mxCell>
        <mxCell id="IBb9JCJCjUCDyRBKX6f4-71" value="description" style="shape=partialRectangle;connectable=0;fillColor=none;top=0;left=0;bottom=0;right=0;align=left;spacingLeft=6;overflow=hidden;whiteSpace=wrap;html=1;" parent="IBb9JCJCjUCDyRBKX6f4-69" vertex="1">
          <mxGeometry x="30" width="150" height="30" as="geometry">
            <mxRectangle width="150" height="30" as="alternateBounds" />
          </mxGeometry>
        </mxCell>
        <mxCell id="IBb9JCJCjUCDyRBKX6f4-24" value="" style="shape=tableRow;horizontal=0;startSize=0;swimlaneHead=0;swimlaneBody=0;fillColor=none;collapsible=0;dropTarget=0;points=[[0,0.5],[1,0.5]];portConstraint=eastwest;top=0;left=0;right=0;bottom=0;" parent="IBb9JCJCjUCDyRBKX6f4-14" vertex="1">
          <mxGeometry y="150" width="180" height="30" as="geometry" />
        </mxCell>
        <mxCell id="IBb9JCJCjUCDyRBKX6f4-25" value="FK" style="shape=partialRectangle;connectable=0;fillColor=none;top=0;left=0;bottom=0;right=0;editable=1;overflow=hidden;whiteSpace=wrap;html=1;" parent="IBb9JCJCjUCDyRBKX6f4-24" vertex="1">
          <mxGeometry width="30" height="30" as="geometry">
            <mxRectangle width="30" height="30" as="alternateBounds" />
          </mxGeometry>
        </mxCell>
        <mxCell id="IBb9JCJCjUCDyRBKX6f4-26" value="author_id" style="shape=partialRectangle;connectable=0;fillColor=none;top=0;left=0;bottom=0;right=0;align=left;spacingLeft=6;overflow=hidden;whiteSpace=wrap;html=1;" parent="IBb9JCJCjUCDyRBKX6f4-24" vertex="1">
          <mxGeometry x="30" width="150" height="30" as="geometry">
            <mxRectangle width="150" height="30" as="alternateBounds" />
          </mxGeometry>
        </mxCell>
        <mxCell id="IBb9JCJCjUCDyRBKX6f4-27" style="shape=tableRow;horizontal=0;startSize=0;swimlaneHead=0;swimlaneBody=0;fillColor=none;collapsible=0;dropTarget=0;points=[[0,0.5],[1,0.5]];portConstraint=eastwest;top=0;left=0;right=0;bottom=0;" parent="IBb9JCJCjUCDyRBKX6f4-14" vertex="1">
          <mxGeometry y="180" width="180" height="30" as="geometry" />
        </mxCell>
        <mxCell id="IBb9JCJCjUCDyRBKX6f4-28" style="shape=partialRectangle;connectable=0;fillColor=none;top=0;left=0;bottom=0;right=0;editable=1;overflow=hidden;whiteSpace=wrap;html=1;" parent="IBb9JCJCjUCDyRBKX6f4-27" vertex="1">
          <mxGeometry width="30" height="30" as="geometry">
            <mxRectangle width="30" height="30" as="alternateBounds" />
          </mxGeometry>
        </mxCell>
        <mxCell id="IBb9JCJCjUCDyRBKX6f4-29" value="posted_date" style="shape=partialRectangle;connectable=0;fillColor=none;top=0;left=0;bottom=0;right=0;align=left;spacingLeft=6;overflow=hidden;whiteSpace=wrap;html=1;" parent="IBb9JCJCjUCDyRBKX6f4-27" vertex="1">
          <mxGeometry x="30" width="150" height="30" as="geometry">
            <mxRectangle width="150" height="30" as="alternateBounds" />
          </mxGeometry>
        </mxCell>
        <mxCell id="IBb9JCJCjUCDyRBKX6f4-32" value="" style="edgeStyle=entityRelationEdgeStyle;fontSize=12;html=1;endArrow=ERzeroToMany;endFill=1;rounded=0;curved=1;" parent="1" source="IBb9JCJCjUCDyRBKX6f4-1" target="IBb9JCJCjUCDyRBKX6f4-14" edge="1">
          <mxGeometry width="100" height="100" relative="1" as="geometry">
            <mxPoint x="240" y="240" as="sourcePoint" />
            <mxPoint x="340" y="140" as="targetPoint" />
          </mxGeometry>
        </mxCell>
        <mxCell id="IBb9JCJCjUCDyRBKX6f4-33" value="Choices" style="shape=table;startSize=30;container=1;collapsible=1;childLayout=tableLayout;fixedRows=1;rowLines=0;fontStyle=1;align=center;resizeLast=1;html=1;" parent="1" vertex="1">
          <mxGeometry x="630" y="100" width="180" height="150" as="geometry" />
        </mxCell>
        <mxCell id="IBb9JCJCjUCDyRBKX6f4-34" value="" style="shape=tableRow;horizontal=0;startSize=0;swimlaneHead=0;swimlaneBody=0;fillColor=none;collapsible=0;dropTarget=0;points=[[0,0.5],[1,0.5]];portConstraint=eastwest;top=0;left=0;right=0;bottom=1;" parent="IBb9JCJCjUCDyRBKX6f4-33" vertex="1">
          <mxGeometry y="30" width="180" height="30" as="geometry" />
        </mxCell>
        <mxCell id="IBb9JCJCjUCDyRBKX6f4-35" value="PK" style="shape=partialRectangle;connectable=0;fillColor=none;top=0;left=0;bottom=0;right=0;fontStyle=1;overflow=hidden;whiteSpace=wrap;html=1;" parent="IBb9JCJCjUCDyRBKX6f4-34" vertex="1">
          <mxGeometry width="30" height="30" as="geometry">
            <mxRectangle width="30" height="30" as="alternateBounds" />
          </mxGeometry>
        </mxCell>
        <mxCell id="IBb9JCJCjUCDyRBKX6f4-36" value="id" style="shape=partialRectangle;connectable=0;fillColor=none;top=0;left=0;bottom=0;right=0;align=left;spacingLeft=6;fontStyle=5;overflow=hidden;whiteSpace=wrap;html=1;" parent="IBb9JCJCjUCDyRBKX6f4-34" vertex="1">
          <mxGeometry x="30" width="150" height="30" as="geometry">
            <mxRectangle width="150" height="30" as="alternateBounds" />
          </mxGeometry>
        </mxCell>
        <mxCell id="IBb9JCJCjUCDyRBKX6f4-37" value="" style="shape=tableRow;horizontal=0;startSize=0;swimlaneHead=0;swimlaneBody=0;fillColor=none;collapsible=0;dropTarget=0;points=[[0,0.5],[1,0.5]];portConstraint=eastwest;top=0;left=0;right=0;bottom=0;" parent="IBb9JCJCjUCDyRBKX6f4-33" vertex="1">
          <mxGeometry y="60" width="180" height="30" as="geometry" />
        </mxCell>
        <mxCell id="IBb9JCJCjUCDyRBKX6f4-38" value="" style="shape=partialRectangle;connectable=0;fillColor=none;top=0;left=0;bottom=0;right=0;editable=1;overflow=hidden;whiteSpace=wrap;html=1;" parent="IBb9JCJCjUCDyRBKX6f4-37" vertex="1">
          <mxGeometry width="30" height="30" as="geometry">
            <mxRectangle width="30" height="30" as="alternateBounds" />
          </mxGeometry>
        </mxCell>
        <mxCell id="IBb9JCJCjUCDyRBKX6f4-39" value="content" style="shape=partialRectangle;connectable=0;fillColor=none;top=0;left=0;bottom=0;right=0;align=left;spacingLeft=6;overflow=hidden;whiteSpace=wrap;html=1;" parent="IBb9JCJCjUCDyRBKX6f4-37" vertex="1">
          <mxGeometry x="30" width="150" height="30" as="geometry">
            <mxRectangle width="150" height="30" as="alternateBounds" />
          </mxGeometry>
        </mxCell>
        <mxCell id="IBb9JCJCjUCDyRBKX6f4-40" value="" style="shape=tableRow;horizontal=0;startSize=0;swimlaneHead=0;swimlaneBody=0;fillColor=none;collapsible=0;dropTarget=0;points=[[0,0.5],[1,0.5]];portConstraint=eastwest;top=0;left=0;right=0;bottom=0;" parent="IBb9JCJCjUCDyRBKX6f4-33" vertex="1">
          <mxGeometry y="90" width="180" height="30" as="geometry" />
        </mxCell>
        <mxCell id="IBb9JCJCjUCDyRBKX6f4-41" value="" style="shape=partialRectangle;connectable=0;fillColor=none;top=0;left=0;bottom=0;right=0;editable=1;overflow=hidden;whiteSpace=wrap;html=1;" parent="IBb9JCJCjUCDyRBKX6f4-40" vertex="1">
          <mxGeometry width="30" height="30" as="geometry">
            <mxRectangle width="30" height="30" as="alternateBounds" />
          </mxGeometry>
        </mxCell>
        <mxCell id="IBb9JCJCjUCDyRBKX6f4-42" value="is_answer" style="shape=partialRectangle;connectable=0;fillColor=none;top=0;left=0;bottom=0;right=0;align=left;spacingLeft=6;overflow=hidden;whiteSpace=wrap;html=1;" parent="IBb9JCJCjUCDyRBKX6f4-40" vertex="1">
          <mxGeometry x="30" width="150" height="30" as="geometry">
            <mxRectangle width="150" height="30" as="alternateBounds" />
          </mxGeometry>
        </mxCell>
        <mxCell id="IBb9JCJCjUCDyRBKX6f4-43" value="" style="shape=tableRow;horizontal=0;startSize=0;swimlaneHead=0;swimlaneBody=0;fillColor=none;collapsible=0;dropTarget=0;points=[[0,0.5],[1,0.5]];portConstraint=eastwest;top=0;left=0;right=0;bottom=0;" parent="IBb9JCJCjUCDyRBKX6f4-33" vertex="1">
          <mxGeometry y="120" width="180" height="30" as="geometry" />
        </mxCell>
        <mxCell id="IBb9JCJCjUCDyRBKX6f4-44" value="FK" style="shape=partialRectangle;connectable=0;fillColor=none;top=0;left=0;bottom=0;right=0;editable=1;overflow=hidden;whiteSpace=wrap;html=1;" parent="IBb9JCJCjUCDyRBKX6f4-43" vertex="1">
          <mxGeometry width="30" height="30" as="geometry">
            <mxRectangle width="30" height="30" as="alternateBounds" />
          </mxGeometry>
        </mxCell>
        <mxCell id="IBb9JCJCjUCDyRBKX6f4-45" value="quiz_id" style="shape=partialRectangle;connectable=0;fillColor=none;top=0;left=0;bottom=0;right=0;align=left;spacingLeft=6;overflow=hidden;whiteSpace=wrap;html=1;" parent="IBb9JCJCjUCDyRBKX6f4-43" vertex="1">
          <mxGeometry x="30" width="150" height="30" as="geometry">
            <mxRectangle width="150" height="30" as="alternateBounds" />
          </mxGeometry>
        </mxCell>
        <mxCell id="IBb9JCJCjUCDyRBKX6f4-46" value="" style="edgeStyle=entityRelationEdgeStyle;fontSize=12;html=1;endArrow=ERoneToMany;rounded=0;curved=1;" parent="1" source="IBb9JCJCjUCDyRBKX6f4-14" target="IBb9JCJCjUCDyRBKX6f4-33" edge="1">
          <mxGeometry width="100" height="100" relative="1" as="geometry">
            <mxPoint x="520" y="130" as="sourcePoint" />
            <mxPoint x="620" y="30" as="targetPoint" />
          </mxGeometry>
        </mxCell>
        <mxCell id="IBb9JCJCjUCDyRBKX6f4-47" value="Responses" style="shape=table;startSize=30;container=1;collapsible=1;childLayout=tableLayout;fixedRows=1;rowLines=0;fontStyle=1;align=center;resizeLast=1;html=1;" parent="1" vertex="1">
          <mxGeometry x="320" y="370" width="180" height="180" as="geometry" />
        </mxCell>
        <mxCell id="IBb9JCJCjUCDyRBKX6f4-48" value="" style="shape=tableRow;horizontal=0;startSize=0;swimlaneHead=0;swimlaneBody=0;fillColor=none;collapsible=0;dropTarget=0;points=[[0,0.5],[1,0.5]];portConstraint=eastwest;top=0;left=0;right=0;bottom=1;" parent="IBb9JCJCjUCDyRBKX6f4-47" vertex="1">
          <mxGeometry y="30" width="180" height="30" as="geometry" />
        </mxCell>
        <mxCell id="IBb9JCJCjUCDyRBKX6f4-49" value="PK" style="shape=partialRectangle;connectable=0;fillColor=none;top=0;left=0;bottom=0;right=0;fontStyle=1;overflow=hidden;whiteSpace=wrap;html=1;" parent="IBb9JCJCjUCDyRBKX6f4-48" vertex="1">
          <mxGeometry width="30" height="30" as="geometry">
            <mxRectangle width="30" height="30" as="alternateBounds" />
          </mxGeometry>
        </mxCell>
        <mxCell id="IBb9JCJCjUCDyRBKX6f4-50" value="id" style="shape=partialRectangle;connectable=0;fillColor=none;top=0;left=0;bottom=0;right=0;align=left;spacingLeft=6;fontStyle=5;overflow=hidden;whiteSpace=wrap;html=1;" parent="IBb9JCJCjUCDyRBKX6f4-48" vertex="1">
          <mxGeometry x="30" width="150" height="30" as="geometry">
            <mxRectangle width="150" height="30" as="alternateBounds" />
          </mxGeometry>
        </mxCell>
        <mxCell id="IBb9JCJCjUCDyRBKX6f4-51" value="" style="shape=tableRow;horizontal=0;startSize=0;swimlaneHead=0;swimlaneBody=0;fillColor=none;collapsible=0;dropTarget=0;points=[[0,0.5],[1,0.5]];portConstraint=eastwest;top=0;left=0;right=0;bottom=0;" parent="IBb9JCJCjUCDyRBKX6f4-47" vertex="1">
          <mxGeometry y="60" width="180" height="30" as="geometry" />
        </mxCell>
        <mxCell id="IBb9JCJCjUCDyRBKX6f4-52" value="FK" style="shape=partialRectangle;connectable=0;fillColor=none;top=0;left=0;bottom=0;right=0;editable=1;overflow=hidden;whiteSpace=wrap;html=1;" parent="IBb9JCJCjUCDyRBKX6f4-51" vertex="1">
          <mxGeometry width="30" height="30" as="geometry">
            <mxRectangle width="30" height="30" as="alternateBounds" />
          </mxGeometry>
        </mxCell>
        <mxCell id="IBb9JCJCjUCDyRBKX6f4-53" value="quiz_id" style="shape=partialRectangle;connectable=0;fillColor=none;top=0;left=0;bottom=0;right=0;align=left;spacingLeft=6;overflow=hidden;whiteSpace=wrap;html=1;" parent="IBb9JCJCjUCDyRBKX6f4-51" vertex="1">
          <mxGeometry x="30" width="150" height="30" as="geometry">
            <mxRectangle width="150" height="30" as="alternateBounds" />
          </mxGeometry>
        </mxCell>
        <mxCell id="IBb9JCJCjUCDyRBKX6f4-54" value="" style="shape=tableRow;horizontal=0;startSize=0;swimlaneHead=0;swimlaneBody=0;fillColor=none;collapsible=0;dropTarget=0;points=[[0,0.5],[1,0.5]];portConstraint=eastwest;top=0;left=0;right=0;bottom=0;" parent="IBb9JCJCjUCDyRBKX6f4-47" vertex="1">
          <mxGeometry y="90" width="180" height="30" as="geometry" />
        </mxCell>
        <mxCell id="IBb9JCJCjUCDyRBKX6f4-55" value="FK" style="shape=partialRectangle;connectable=0;fillColor=none;top=0;left=0;bottom=0;right=0;editable=1;overflow=hidden;whiteSpace=wrap;html=1;" parent="IBb9JCJCjUCDyRBKX6f4-54" vertex="1">
          <mxGeometry width="30" height="30" as="geometry">
            <mxRectangle width="30" height="30" as="alternateBounds" />
          </mxGeometry>
        </mxCell>
        <mxCell id="IBb9JCJCjUCDyRBKX6f4-56" value="choice_id" style="shape=partialRectangle;connectable=0;fillColor=none;top=0;left=0;bottom=0;right=0;align=left;spacingLeft=6;overflow=hidden;whiteSpace=wrap;html=1;" parent="IBb9JCJCjUCDyRBKX6f4-54" vertex="1">
          <mxGeometry x="30" width="150" height="30" as="geometry">
            <mxRectangle width="150" height="30" as="alternateBounds" />
          </mxGeometry>
        </mxCell>
        <mxCell id="IBb9JCJCjUCDyRBKX6f4-57" value="" style="shape=tableRow;horizontal=0;startSize=0;swimlaneHead=0;swimlaneBody=0;fillColor=none;collapsible=0;dropTarget=0;points=[[0,0.5],[1,0.5]];portConstraint=eastwest;top=0;left=0;right=0;bottom=0;" parent="IBb9JCJCjUCDyRBKX6f4-47" vertex="1">
          <mxGeometry y="120" width="180" height="30" as="geometry" />
        </mxCell>
        <mxCell id="IBb9JCJCjUCDyRBKX6f4-58" value="FK" style="shape=partialRectangle;connectable=0;fillColor=none;top=0;left=0;bottom=0;right=0;editable=1;overflow=hidden;whiteSpace=wrap;html=1;" parent="IBb9JCJCjUCDyRBKX6f4-57" vertex="1">
          <mxGeometry width="30" height="30" as="geometry">
            <mxRectangle width="30" height="30" as="alternateBounds" />
          </mxGeometry>
        </mxCell>
        <mxCell id="IBb9JCJCjUCDyRBKX6f4-59" value="user_id" style="shape=partialRectangle;connectable=0;fillColor=none;top=0;left=0;bottom=0;right=0;align=left;spacingLeft=6;overflow=hidden;whiteSpace=wrap;html=1;" parent="IBb9JCJCjUCDyRBKX6f4-57" vertex="1">
          <mxGeometry x="30" width="150" height="30" as="geometry">
            <mxRectangle width="150" height="30" as="alternateBounds" />
          </mxGeometry>
        </mxCell>
        <mxCell id="IBb9JCJCjUCDyRBKX6f4-60" style="shape=tableRow;horizontal=0;startSize=0;swimlaneHead=0;swimlaneBody=0;fillColor=none;collapsible=0;dropTarget=0;points=[[0,0.5],[1,0.5]];portConstraint=eastwest;top=0;left=0;right=0;bottom=0;" parent="IBb9JCJCjUCDyRBKX6f4-47" vertex="1">
          <mxGeometry y="150" width="180" height="30" as="geometry" />
        </mxCell>
        <mxCell id="IBb9JCJCjUCDyRBKX6f4-61" style="shape=partialRectangle;connectable=0;fillColor=none;top=0;left=0;bottom=0;right=0;editable=1;overflow=hidden;whiteSpace=wrap;html=1;" parent="IBb9JCJCjUCDyRBKX6f4-60" vertex="1">
          <mxGeometry width="30" height="30" as="geometry">
            <mxRectangle width="30" height="30" as="alternateBounds" />
          </mxGeometry>
        </mxCell>
        <mxCell id="IBb9JCJCjUCDyRBKX6f4-62" value="response_date" style="shape=partialRectangle;connectable=0;fillColor=none;top=0;left=0;bottom=0;right=0;align=left;spacingLeft=6;overflow=hidden;whiteSpace=wrap;html=1;" parent="IBb9JCJCjUCDyRBKX6f4-60" vertex="1">
          <mxGeometry x="30" width="150" height="30" as="geometry">
            <mxRectangle width="150" height="30" as="alternateBounds" />
          </mxGeometry>
        </mxCell>
        <mxCell id="IBb9JCJCjUCDyRBKX6f4-63" value="" style="edgeStyle=entityRelationEdgeStyle;fontSize=12;html=1;endArrow=ERzeroToMany;endFill=1;rounded=0;curved=1;" parent="1" source="IBb9JCJCjUCDyRBKX6f4-1" target="IBb9JCJCjUCDyRBKX6f4-47" edge="1">
          <mxGeometry width="100" height="100" relative="1" as="geometry">
            <mxPoint x="180" y="400" as="sourcePoint" />
            <mxPoint x="330" y="390" as="targetPoint" />
          </mxGeometry>
        </mxCell>
        <mxCell id="IBb9JCJCjUCDyRBKX6f4-65" value="" style="edgeStyle=entityRelationEdgeStyle;fontSize=12;html=1;endArrow=ERzeroToMany;endFill=1;rounded=0;curved=1;exitX=0.544;exitY=1;exitDx=0;exitDy=0;exitPerimeter=0;" parent="1" source="IBb9JCJCjUCDyRBKX6f4-43" target="IBb9JCJCjUCDyRBKX6f4-47" edge="1">
          <mxGeometry width="100" height="100" relative="1" as="geometry">
            <mxPoint x="560" y="450" as="sourcePoint" />
            <mxPoint x="660" y="350" as="targetPoint" />
          </mxGeometry>
        </mxCell>
        <mxCell id="IBb9JCJCjUCDyRBKX6f4-68" value="" style="fontSize=12;html=1;endArrow=ERzeroToMany;endFill=1;rounded=0;exitX=0.483;exitY=1.067;exitDx=0;exitDy=0;exitPerimeter=0;entryX=0.5;entryY=0;entryDx=0;entryDy=0;" parent="1" source="IBb9JCJCjUCDyRBKX6f4-27" target="IBb9JCJCjUCDyRBKX6f4-47" edge="1">
          <mxGeometry width="100" height="100" relative="1" as="geometry">
            <mxPoint x="220" y="510" as="sourcePoint" />
            <mxPoint x="320" y="410" as="targetPoint" />
          </mxGeometry>
        </mxCell>
      </root>
    </mxGraphModel>
  </diagram>
  <diagram name="Users" id="hWmrZrTEgw87l_8Fc4TT">
    <mxGraphModel dx="712" dy="827" grid="1" gridSize="10" guides="1" tooltips="1" connect="1" arrows="1" fold="1" page="1" pageScale="1" pageWidth="827" pageHeight="1169" math="0" shadow="0">
      <root>
        <mxCell id="EeVU26lgcI9mtNc7Ugqv-0" />
        <mxCell id="EeVU26lgcI9mtNc7Ugqv-1" parent="EeVU26lgcI9mtNc7Ugqv-0" />
        <mxCell id="EeVU26lgcI9mtNc7Ugqv-2" value="&lt;h1&gt;Users&lt;/h1&gt;&lt;div&gt;ユーザ情報を保存するマスタテーブル。&lt;/div&gt;" style="text;html=1;strokeColor=none;fillColor=none;spacing=5;spacingTop=-20;whiteSpace=wrap;overflow=hidden;rounded=0;" vertex="1" parent="EeVU26lgcI9mtNc7Ugqv-1">
          <mxGeometry x="40" y="40" width="760" height="120" as="geometry" />
        </mxCell>
        <mxCell id="EeVU26lgcI9mtNc7Ugqv-3" value="&lt;span style=&quot;font-size: 24px;&quot;&gt;&lt;b&gt;カラム&lt;/b&gt;&lt;/span&gt;" style="text;html=1;strokeColor=none;fillColor=none;align=center;verticalAlign=middle;whiteSpace=wrap;rounded=0;" vertex="1" parent="EeVU26lgcI9mtNc7Ugqv-1">
          <mxGeometry x="40" y="160" width="100" height="30" as="geometry" />
        </mxCell>
        <mxCell id="EeVU26lgcI9mtNc7Ugqv-4" style="edgeStyle=orthogonalEdgeStyle;rounded=0;orthogonalLoop=1;jettySize=auto;html=1;exitX=0.5;exitY=1;exitDx=0;exitDy=0;" edge="1" parent="EeVU26lgcI9mtNc7Ugqv-1" source="EeVU26lgcI9mtNc7Ugqv-3" target="EeVU26lgcI9mtNc7Ugqv-3">
          <mxGeometry relative="1" as="geometry" />
        </mxCell>
        <mxCell id="EeVU26lgcI9mtNc7Ugqv-5" value="&lt;span style=&quot;font-size: 18px;&quot;&gt;&lt;b&gt;id&lt;/b&gt;&lt;/span&gt;" style="text;html=1;strokeColor=none;fillColor=none;align=right;verticalAlign=middle;whiteSpace=wrap;rounded=0;" vertex="1" parent="EeVU26lgcI9mtNc7Ugqv-1">
          <mxGeometry x="170" y="240" width="60" height="30" as="geometry" />
        </mxCell>
        <mxCell id="EeVU26lgcI9mtNc7Ugqv-6" value="" style="endArrow=none;html=1;rounded=0;" edge="1" parent="EeVU26lgcI9mtNc7Ugqv-1">
          <mxGeometry width="50" height="50" relative="1" as="geometry">
            <mxPoint x="240" y="750" as="sourcePoint" />
            <mxPoint x="240" y="180" as="targetPoint" />
          </mxGeometry>
        </mxCell>
        <mxCell id="EeVU26lgcI9mtNc7Ugqv-7" value="&lt;b style=&quot;&quot;&gt;&lt;font style=&quot;font-size: 18px;&quot;&gt;カラム名&lt;/font&gt;&lt;/b&gt;" style="text;html=1;strokeColor=none;fillColor=none;align=right;verticalAlign=middle;whiteSpace=wrap;rounded=0;" vertex="1" parent="EeVU26lgcI9mtNc7Ugqv-1">
          <mxGeometry x="130" y="200" width="100" height="30" as="geometry" />
        </mxCell>
        <mxCell id="EeVU26lgcI9mtNc7Ugqv-8" value="" style="endArrow=none;html=1;rounded=0;" edge="1" parent="EeVU26lgcI9mtNc7Ugqv-1">
          <mxGeometry width="50" height="50" relative="1" as="geometry">
            <mxPoint x="155" y="230" as="sourcePoint" />
            <mxPoint x="800" y="230" as="targetPoint" />
          </mxGeometry>
        </mxCell>
        <mxCell id="EeVU26lgcI9mtNc7Ugqv-9" value="" style="endArrow=none;html=1;rounded=0;" edge="1" parent="EeVU26lgcI9mtNc7Ugqv-1">
          <mxGeometry width="50" height="50" relative="1" as="geometry">
            <mxPoint x="360" y="750" as="sourcePoint" />
            <mxPoint x="360" y="180" as="targetPoint" />
          </mxGeometry>
        </mxCell>
        <mxCell id="EeVU26lgcI9mtNc7Ugqv-10" value="" style="endArrow=none;html=1;rounded=0;" edge="1" parent="EeVU26lgcI9mtNc7Ugqv-1">
          <mxGeometry width="50" height="50" relative="1" as="geometry">
            <mxPoint x="480" y="750" as="sourcePoint" />
            <mxPoint x="480" y="180" as="targetPoint" />
          </mxGeometry>
        </mxCell>
        <mxCell id="EeVU26lgcI9mtNc7Ugqv-11" value="" style="endArrow=none;html=1;rounded=0;" edge="1" parent="EeVU26lgcI9mtNc7Ugqv-1">
          <mxGeometry width="50" height="50" relative="1" as="geometry">
            <mxPoint x="600" y="750" as="sourcePoint" />
            <mxPoint x="600" y="180" as="targetPoint" />
          </mxGeometry>
        </mxCell>
        <mxCell id="EeVU26lgcI9mtNc7Ugqv-12" value="&lt;span style=&quot;font-size: 18px;&quot;&gt;&lt;b&gt;データ型&lt;/b&gt;&lt;/span&gt;" style="text;html=1;strokeColor=none;fillColor=none;align=center;verticalAlign=middle;whiteSpace=wrap;rounded=0;" vertex="1" parent="EeVU26lgcI9mtNc7Ugqv-1">
          <mxGeometry x="250" y="200" width="100" height="30" as="geometry" />
        </mxCell>
        <mxCell id="EeVU26lgcI9mtNc7Ugqv-13" value="&lt;span style=&quot;font-size: 18px;&quot;&gt;&lt;b&gt;Null許容&lt;/b&gt;&lt;/span&gt;" style="text;html=1;strokeColor=none;fillColor=none;align=center;verticalAlign=middle;whiteSpace=wrap;rounded=0;" vertex="1" parent="EeVU26lgcI9mtNc7Ugqv-1">
          <mxGeometry x="370" y="200" width="100" height="30" as="geometry" />
        </mxCell>
        <mxCell id="EeVU26lgcI9mtNc7Ugqv-14" value="&lt;span style=&quot;font-size: 18px;&quot;&gt;&lt;b&gt;デフォルト&lt;/b&gt;&lt;/span&gt;" style="text;html=1;strokeColor=none;fillColor=none;align=center;verticalAlign=middle;whiteSpace=wrap;rounded=0;" vertex="1" parent="EeVU26lgcI9mtNc7Ugqv-1">
          <mxGeometry x="490" y="200" width="100" height="30" as="geometry" />
        </mxCell>
        <mxCell id="EeVU26lgcI9mtNc7Ugqv-15" value="&lt;span style=&quot;font-size: 18px;&quot;&gt;&lt;b&gt;備考&lt;/b&gt;&lt;/span&gt;" style="text;html=1;strokeColor=none;fillColor=none;align=center;verticalAlign=middle;whiteSpace=wrap;rounded=0;" vertex="1" parent="EeVU26lgcI9mtNc7Ugqv-1">
          <mxGeometry x="650" y="200" width="100" height="30" as="geometry" />
        </mxCell>
        <mxCell id="EeVU26lgcI9mtNc7Ugqv-16" value="&lt;span style=&quot;font-size: 18px;&quot;&gt;&lt;b&gt;INT&lt;/b&gt;&lt;/span&gt;" style="text;html=1;strokeColor=none;fillColor=none;align=center;verticalAlign=middle;whiteSpace=wrap;rounded=0;" vertex="1" parent="EeVU26lgcI9mtNc7Ugqv-1">
          <mxGeometry x="250" y="240" width="100" height="30" as="geometry" />
        </mxCell>
        <mxCell id="EeVU26lgcI9mtNc7Ugqv-17" value="&lt;span style=&quot;font-size: 18px;&quot;&gt;&lt;b&gt;Not Null&lt;/b&gt;&lt;/span&gt;" style="text;html=1;strokeColor=none;fillColor=none;align=center;verticalAlign=middle;whiteSpace=wrap;rounded=0;" vertex="1" parent="EeVU26lgcI9mtNc7Ugqv-1">
          <mxGeometry x="370" y="240" width="100" height="30" as="geometry" />
        </mxCell>
        <mxCell id="EeVU26lgcI9mtNc7Ugqv-18" value="&lt;span style=&quot;font-size: 18px;&quot;&gt;&lt;b&gt;PK&lt;/b&gt;&lt;/span&gt;" style="text;html=1;strokeColor=none;fillColor=none;align=center;verticalAlign=middle;whiteSpace=wrap;rounded=0;" vertex="1" parent="EeVU26lgcI9mtNc7Ugqv-1">
          <mxGeometry x="10" y="240" width="100" height="30" as="geometry" />
        </mxCell>
        <mxCell id="EeVU26lgcI9mtNc7Ugqv-20" value="&lt;font style=&quot;font-size: 12px;&quot;&gt;AUTO_INCREMENT&lt;/font&gt;" style="text;html=1;strokeColor=none;fillColor=none;align=left;verticalAlign=middle;whiteSpace=wrap;rounded=0;" vertex="1" parent="EeVU26lgcI9mtNc7Ugqv-1">
          <mxGeometry x="610" y="240" width="190" height="30" as="geometry" />
        </mxCell>
        <mxCell id="EeVU26lgcI9mtNc7Ugqv-21" value="&lt;span style=&quot;font-size: 18px;&quot;&gt;&lt;b&gt;name&lt;/b&gt;&lt;/span&gt;" style="text;html=1;strokeColor=none;fillColor=none;align=right;verticalAlign=middle;whiteSpace=wrap;rounded=0;" vertex="1" parent="EeVU26lgcI9mtNc7Ugqv-1">
          <mxGeometry x="170" y="280" width="60" height="30" as="geometry" />
        </mxCell>
        <mxCell id="EeVU26lgcI9mtNc7Ugqv-22" value="&lt;span style=&quot;font-size: 18px;&quot;&gt;&lt;b&gt;VARCHAR&lt;/b&gt;&lt;/span&gt;" style="text;html=1;strokeColor=none;fillColor=none;align=center;verticalAlign=middle;whiteSpace=wrap;rounded=0;" vertex="1" parent="EeVU26lgcI9mtNc7Ugqv-1">
          <mxGeometry x="250" y="280" width="100" height="30" as="geometry" />
        </mxCell>
        <mxCell id="woXsz08i_P8LxbP4L2yg-0" value="&lt;font style=&quot;font-size: 12px;&quot;&gt;ユーザの表示名。&lt;/font&gt;" style="text;html=1;strokeColor=none;fillColor=none;align=left;verticalAlign=middle;whiteSpace=wrap;rounded=0;" vertex="1" parent="EeVU26lgcI9mtNc7Ugqv-1">
          <mxGeometry x="610" y="280" width="190" height="30" as="geometry" />
        </mxCell>
        <mxCell id="woXsz08i_P8LxbP4L2yg-1" value="&lt;span style=&quot;font-size: 18px;&quot;&gt;&lt;b&gt;description&lt;br&gt;&lt;/b&gt;&lt;/span&gt;" style="text;html=1;strokeColor=none;fillColor=none;align=right;verticalAlign=middle;whiteSpace=wrap;rounded=0;" vertex="1" parent="EeVU26lgcI9mtNc7Ugqv-1">
          <mxGeometry x="170" y="320" width="60" height="30" as="geometry" />
        </mxCell>
        <mxCell id="woXsz08i_P8LxbP4L2yg-2" value="&lt;span style=&quot;font-size: 18px;&quot;&gt;&lt;b&gt;VARCHAR&lt;/b&gt;&lt;/span&gt;" style="text;html=1;strokeColor=none;fillColor=none;align=center;verticalAlign=middle;whiteSpace=wrap;rounded=0;" vertex="1" parent="EeVU26lgcI9mtNc7Ugqv-1">
          <mxGeometry x="250" y="320" width="100" height="30" as="geometry" />
        </mxCell>
        <mxCell id="woXsz08i_P8LxbP4L2yg-3" value="&lt;span style=&quot;font-size: 18px;&quot;&gt;&lt;b&gt;Not Null&lt;/b&gt;&lt;/span&gt;" style="text;html=1;strokeColor=none;fillColor=none;align=center;verticalAlign=middle;whiteSpace=wrap;rounded=0;" vertex="1" parent="EeVU26lgcI9mtNc7Ugqv-1">
          <mxGeometry x="370" y="280" width="100" height="30" as="geometry" />
        </mxCell>
        <mxCell id="woXsz08i_P8LxbP4L2yg-5" value="&lt;font style=&quot;font-size: 12px;&quot;&gt;ユーザの自己紹介。&lt;/font&gt;" style="text;html=1;strokeColor=none;fillColor=none;align=left;verticalAlign=middle;whiteSpace=wrap;rounded=0;" vertex="1" parent="EeVU26lgcI9mtNc7Ugqv-1">
          <mxGeometry x="605" y="320" width="190" height="30" as="geometry" />
        </mxCell>
        <mxCell id="woXsz08i_P8LxbP4L2yg-8" value="&lt;font style=&quot;font-size: 18px;&quot;&gt;’’（空値）&lt;/font&gt;" style="text;html=1;align=center;verticalAlign=middle;resizable=0;points=[];autosize=1;strokeColor=none;fillColor=none;" vertex="1" parent="EeVU26lgcI9mtNc7Ugqv-1">
          <mxGeometry x="490" y="315" width="100" height="40" as="geometry" />
        </mxCell>
        <mxCell id="woXsz08i_P8LxbP4L2yg-9" value="&lt;span style=&quot;font-size: 18px;&quot;&gt;&lt;b&gt;password_hash&lt;br&gt;&lt;/b&gt;&lt;/span&gt;" style="text;html=1;strokeColor=none;fillColor=none;align=right;verticalAlign=middle;whiteSpace=wrap;rounded=0;" vertex="1" parent="EeVU26lgcI9mtNc7Ugqv-1">
          <mxGeometry x="170" y="360" width="60" height="30" as="geometry" />
        </mxCell>
        <mxCell id="woXsz08i_P8LxbP4L2yg-10" value="&lt;span style=&quot;font-size: 18px;&quot;&gt;&lt;b&gt;VARCHAR&lt;/b&gt;&lt;/span&gt;" style="text;html=1;strokeColor=none;fillColor=none;align=center;verticalAlign=middle;whiteSpace=wrap;rounded=0;" vertex="1" parent="EeVU26lgcI9mtNc7Ugqv-1">
          <mxGeometry x="250" y="360" width="100" height="30" as="geometry" />
        </mxCell>
        <mxCell id="woXsz08i_P8LxbP4L2yg-11" value="&lt;span style=&quot;font-size: 18px;&quot;&gt;&lt;b&gt;Not Null&lt;/b&gt;&lt;/span&gt;" style="text;html=1;strokeColor=none;fillColor=none;align=center;verticalAlign=middle;whiteSpace=wrap;rounded=0;" vertex="1" parent="EeVU26lgcI9mtNc7Ugqv-1">
          <mxGeometry x="370" y="360" width="100" height="30" as="geometry" />
        </mxCell>
        <mxCell id="woXsz08i_P8LxbP4L2yg-12" value="&lt;font style=&quot;font-size: 12px;&quot;&gt;パスワードのハッシュ値。&lt;/font&gt;" style="text;html=1;strokeColor=none;fillColor=none;align=left;verticalAlign=middle;whiteSpace=wrap;rounded=0;" vertex="1" parent="EeVU26lgcI9mtNc7Ugqv-1">
          <mxGeometry x="605" y="360" width="190" height="30" as="geometry" />
        </mxCell>
        <mxCell id="woXsz08i_P8LxbP4L2yg-13" value="&lt;span style=&quot;font-size: 18px;&quot;&gt;&lt;b&gt;signup_date&lt;br&gt;&lt;/b&gt;&lt;/span&gt;" style="text;html=1;strokeColor=none;fillColor=none;align=right;verticalAlign=middle;whiteSpace=wrap;rounded=0;" vertex="1" parent="EeVU26lgcI9mtNc7Ugqv-1">
          <mxGeometry x="170" y="400" width="60" height="30" as="geometry" />
        </mxCell>
        <mxCell id="woXsz08i_P8LxbP4L2yg-14" value="&lt;span style=&quot;font-size: 18px;&quot;&gt;&lt;b&gt;DATE&lt;/b&gt;&lt;/span&gt;" style="text;html=1;strokeColor=none;fillColor=none;align=center;verticalAlign=middle;whiteSpace=wrap;rounded=0;" vertex="1" parent="EeVU26lgcI9mtNc7Ugqv-1">
          <mxGeometry x="250" y="400" width="100" height="30" as="geometry" />
        </mxCell>
        <mxCell id="woXsz08i_P8LxbP4L2yg-15" value="&lt;span style=&quot;font-size: 18px;&quot;&gt;&lt;b&gt;Not Null&lt;/b&gt;&lt;/span&gt;" style="text;html=1;strokeColor=none;fillColor=none;align=center;verticalAlign=middle;whiteSpace=wrap;rounded=0;" vertex="1" parent="EeVU26lgcI9mtNc7Ugqv-1">
          <mxGeometry x="370" y="400" width="100" height="30" as="geometry" />
        </mxCell>
        <mxCell id="woXsz08i_P8LxbP4L2yg-16" value="データを登録した日時。" style="text;html=1;strokeColor=none;fillColor=none;align=left;verticalAlign=middle;whiteSpace=wrap;rounded=0;" vertex="1" parent="EeVU26lgcI9mtNc7Ugqv-1">
          <mxGeometry x="605" y="400" width="190" height="30" as="geometry" />
        </mxCell>
      </root>
    </mxGraphModel>
  </diagram>
  <diagram name="Quizzes" id="g0X7RXA4ptWZB9UOiwGn">
    <mxGraphModel dx="712" dy="827" grid="1" gridSize="10" guides="1" tooltips="1" connect="1" arrows="1" fold="1" page="1" pageScale="1" pageWidth="827" pageHeight="1169" math="0" shadow="0">
      <root>
        <mxCell id="e3ecwIiKUaz8kYlqcEwL-0" />
        <mxCell id="e3ecwIiKUaz8kYlqcEwL-1" parent="e3ecwIiKUaz8kYlqcEwL-0" />
        <mxCell id="e3ecwIiKUaz8kYlqcEwL-2" value="&lt;h1&gt;Quizzes&lt;/h1&gt;&lt;div&gt;問題に関するデータを扱うマスタテーブル。&lt;br&gt;選択肢はChoicesに分離し、Choices.quiz_idから参照できる。&lt;/div&gt;" style="text;html=1;strokeColor=none;fillColor=none;spacing=5;spacingTop=-20;whiteSpace=wrap;overflow=hidden;rounded=0;" vertex="1" parent="e3ecwIiKUaz8kYlqcEwL-1">
          <mxGeometry x="40" y="40" width="760" height="120" as="geometry" />
        </mxCell>
        <mxCell id="e3ecwIiKUaz8kYlqcEwL-3" value="&lt;span style=&quot;font-size: 24px;&quot;&gt;&lt;b&gt;カラム&lt;/b&gt;&lt;/span&gt;" style="text;html=1;strokeColor=none;fillColor=none;align=center;verticalAlign=middle;whiteSpace=wrap;rounded=0;" vertex="1" parent="e3ecwIiKUaz8kYlqcEwL-1">
          <mxGeometry x="40" y="160" width="100" height="30" as="geometry" />
        </mxCell>
        <mxCell id="e3ecwIiKUaz8kYlqcEwL-4" style="edgeStyle=orthogonalEdgeStyle;rounded=0;orthogonalLoop=1;jettySize=auto;html=1;exitX=0.5;exitY=1;exitDx=0;exitDy=0;" edge="1" parent="e3ecwIiKUaz8kYlqcEwL-1" source="e3ecwIiKUaz8kYlqcEwL-3" target="e3ecwIiKUaz8kYlqcEwL-3">
          <mxGeometry relative="1" as="geometry" />
        </mxCell>
        <mxCell id="e3ecwIiKUaz8kYlqcEwL-5" value="&lt;span style=&quot;font-size: 18px;&quot;&gt;&lt;b&gt;id&lt;/b&gt;&lt;/span&gt;" style="text;html=1;strokeColor=none;fillColor=none;align=right;verticalAlign=middle;whiteSpace=wrap;rounded=0;" vertex="1" parent="e3ecwIiKUaz8kYlqcEwL-1">
          <mxGeometry x="170" y="240" width="60" height="30" as="geometry" />
        </mxCell>
        <mxCell id="e3ecwIiKUaz8kYlqcEwL-6" value="" style="endArrow=none;html=1;rounded=0;" edge="1" parent="e3ecwIiKUaz8kYlqcEwL-1">
          <mxGeometry width="50" height="50" relative="1" as="geometry">
            <mxPoint x="240" y="750" as="sourcePoint" />
            <mxPoint x="240" y="180" as="targetPoint" />
          </mxGeometry>
        </mxCell>
        <mxCell id="e3ecwIiKUaz8kYlqcEwL-7" value="&lt;b style=&quot;&quot;&gt;&lt;font style=&quot;font-size: 18px;&quot;&gt;カラム名&lt;/font&gt;&lt;/b&gt;" style="text;html=1;strokeColor=none;fillColor=none;align=right;verticalAlign=middle;whiteSpace=wrap;rounded=0;" vertex="1" parent="e3ecwIiKUaz8kYlqcEwL-1">
          <mxGeometry x="130" y="200" width="100" height="30" as="geometry" />
        </mxCell>
        <mxCell id="e3ecwIiKUaz8kYlqcEwL-8" value="" style="endArrow=none;html=1;rounded=0;" edge="1" parent="e3ecwIiKUaz8kYlqcEwL-1">
          <mxGeometry width="50" height="50" relative="1" as="geometry">
            <mxPoint x="155" y="230" as="sourcePoint" />
            <mxPoint x="800" y="230" as="targetPoint" />
          </mxGeometry>
        </mxCell>
        <mxCell id="e3ecwIiKUaz8kYlqcEwL-9" value="" style="endArrow=none;html=1;rounded=0;" edge="1" parent="e3ecwIiKUaz8kYlqcEwL-1">
          <mxGeometry width="50" height="50" relative="1" as="geometry">
            <mxPoint x="360" y="750" as="sourcePoint" />
            <mxPoint x="360" y="180" as="targetPoint" />
          </mxGeometry>
        </mxCell>
        <mxCell id="e3ecwIiKUaz8kYlqcEwL-10" value="" style="endArrow=none;html=1;rounded=0;" edge="1" parent="e3ecwIiKUaz8kYlqcEwL-1">
          <mxGeometry width="50" height="50" relative="1" as="geometry">
            <mxPoint x="480" y="750" as="sourcePoint" />
            <mxPoint x="480" y="180" as="targetPoint" />
          </mxGeometry>
        </mxCell>
        <mxCell id="e3ecwIiKUaz8kYlqcEwL-11" value="" style="endArrow=none;html=1;rounded=0;" edge="1" parent="e3ecwIiKUaz8kYlqcEwL-1">
          <mxGeometry width="50" height="50" relative="1" as="geometry">
            <mxPoint x="600" y="750" as="sourcePoint" />
            <mxPoint x="600" y="180" as="targetPoint" />
          </mxGeometry>
        </mxCell>
        <mxCell id="e3ecwIiKUaz8kYlqcEwL-12" value="&lt;span style=&quot;font-size: 18px;&quot;&gt;&lt;b&gt;データ型&lt;/b&gt;&lt;/span&gt;" style="text;html=1;strokeColor=none;fillColor=none;align=center;verticalAlign=middle;whiteSpace=wrap;rounded=0;" vertex="1" parent="e3ecwIiKUaz8kYlqcEwL-1">
          <mxGeometry x="250" y="200" width="100" height="30" as="geometry" />
        </mxCell>
        <mxCell id="e3ecwIiKUaz8kYlqcEwL-13" value="&lt;span style=&quot;font-size: 18px;&quot;&gt;&lt;b&gt;Null許容&lt;/b&gt;&lt;/span&gt;" style="text;html=1;strokeColor=none;fillColor=none;align=center;verticalAlign=middle;whiteSpace=wrap;rounded=0;" vertex="1" parent="e3ecwIiKUaz8kYlqcEwL-1">
          <mxGeometry x="370" y="200" width="100" height="30" as="geometry" />
        </mxCell>
        <mxCell id="e3ecwIiKUaz8kYlqcEwL-14" value="&lt;span style=&quot;font-size: 18px;&quot;&gt;&lt;b&gt;デフォルト&lt;/b&gt;&lt;/span&gt;" style="text;html=1;strokeColor=none;fillColor=none;align=center;verticalAlign=middle;whiteSpace=wrap;rounded=0;" vertex="1" parent="e3ecwIiKUaz8kYlqcEwL-1">
          <mxGeometry x="490" y="200" width="100" height="30" as="geometry" />
        </mxCell>
        <mxCell id="e3ecwIiKUaz8kYlqcEwL-15" value="&lt;span style=&quot;font-size: 18px;&quot;&gt;&lt;b&gt;備考&lt;/b&gt;&lt;/span&gt;" style="text;html=1;strokeColor=none;fillColor=none;align=center;verticalAlign=middle;whiteSpace=wrap;rounded=0;" vertex="1" parent="e3ecwIiKUaz8kYlqcEwL-1">
          <mxGeometry x="650" y="200" width="100" height="30" as="geometry" />
        </mxCell>
        <mxCell id="e3ecwIiKUaz8kYlqcEwL-16" value="&lt;span style=&quot;font-size: 18px;&quot;&gt;&lt;b&gt;INT&lt;/b&gt;&lt;/span&gt;" style="text;html=1;strokeColor=none;fillColor=none;align=center;verticalAlign=middle;whiteSpace=wrap;rounded=0;" vertex="1" parent="e3ecwIiKUaz8kYlqcEwL-1">
          <mxGeometry x="250" y="240" width="100" height="30" as="geometry" />
        </mxCell>
        <mxCell id="e3ecwIiKUaz8kYlqcEwL-17" value="&lt;span style=&quot;font-size: 18px;&quot;&gt;&lt;b&gt;Not Null&lt;/b&gt;&lt;/span&gt;" style="text;html=1;strokeColor=none;fillColor=none;align=center;verticalAlign=middle;whiteSpace=wrap;rounded=0;" vertex="1" parent="e3ecwIiKUaz8kYlqcEwL-1">
          <mxGeometry x="370" y="240" width="100" height="30" as="geometry" />
        </mxCell>
        <mxCell id="e3ecwIiKUaz8kYlqcEwL-18" value="&lt;span style=&quot;font-size: 18px;&quot;&gt;&lt;b&gt;PK&lt;/b&gt;&lt;/span&gt;" style="text;html=1;strokeColor=none;fillColor=none;align=center;verticalAlign=middle;whiteSpace=wrap;rounded=0;" vertex="1" parent="e3ecwIiKUaz8kYlqcEwL-1">
          <mxGeometry x="10" y="240" width="100" height="30" as="geometry" />
        </mxCell>
        <mxCell id="e3ecwIiKUaz8kYlqcEwL-19" value="&lt;span style=&quot;font-size: 18px;&quot;&gt;&lt;b&gt;FK&lt;/b&gt;&lt;/span&gt;" style="text;html=1;strokeColor=none;fillColor=none;align=center;verticalAlign=middle;whiteSpace=wrap;rounded=0;" vertex="1" parent="e3ecwIiKUaz8kYlqcEwL-1">
          <mxGeometry x="10" y="400" width="100" height="30" as="geometry" />
        </mxCell>
        <mxCell id="e3ecwIiKUaz8kYlqcEwL-20" value="&lt;font style=&quot;font-size: 12px;&quot;&gt;AUTO_INCREMENT&lt;/font&gt;" style="text;html=1;strokeColor=none;fillColor=none;align=left;verticalAlign=middle;whiteSpace=wrap;rounded=0;" vertex="1" parent="e3ecwIiKUaz8kYlqcEwL-1">
          <mxGeometry x="610" y="240" width="190" height="30" as="geometry" />
        </mxCell>
        <mxCell id="e3ecwIiKUaz8kYlqcEwL-21" value="&lt;span style=&quot;font-size: 18px;&quot;&gt;&lt;b&gt;title&lt;/b&gt;&lt;/span&gt;" style="text;html=1;strokeColor=none;fillColor=none;align=right;verticalAlign=middle;whiteSpace=wrap;rounded=0;" vertex="1" parent="e3ecwIiKUaz8kYlqcEwL-1">
          <mxGeometry x="170" y="280" width="60" height="30" as="geometry" />
        </mxCell>
        <mxCell id="e3ecwIiKUaz8kYlqcEwL-22" value="&lt;span style=&quot;font-size: 18px;&quot;&gt;&lt;b&gt;VARCHAR&lt;/b&gt;&lt;/span&gt;" style="text;html=1;strokeColor=none;fillColor=none;align=center;verticalAlign=middle;whiteSpace=wrap;rounded=0;" vertex="1" parent="e3ecwIiKUaz8kYlqcEwL-1">
          <mxGeometry x="250" y="280" width="100" height="30" as="geometry" />
        </mxCell>
        <mxCell id="e3ecwIiKUaz8kYlqcEwL-23" value="&lt;font style=&quot;font-size: 12px;&quot;&gt;クイズのタイトル&lt;/font&gt;" style="text;html=1;strokeColor=none;fillColor=none;align=left;verticalAlign=middle;whiteSpace=wrap;rounded=0;" vertex="1" parent="e3ecwIiKUaz8kYlqcEwL-1">
          <mxGeometry x="610" y="280" width="190" height="30" as="geometry" />
        </mxCell>
        <mxCell id="MAatgw7WAn8f1TVHc-xX-0" value="&lt;span style=&quot;font-size: 18px;&quot;&gt;&lt;b&gt;Not Null&lt;/b&gt;&lt;/span&gt;" style="text;html=1;strokeColor=none;fillColor=none;align=center;verticalAlign=middle;whiteSpace=wrap;rounded=0;" vertex="1" parent="e3ecwIiKUaz8kYlqcEwL-1">
          <mxGeometry x="370" y="280" width="100" height="30" as="geometry" />
        </mxCell>
        <mxCell id="Nj1SNXij-2DaVRR05Zrn-0" value="&lt;span style=&quot;font-size: 18px;&quot;&gt;&lt;b&gt;content&lt;/b&gt;&lt;/span&gt;" style="text;html=1;strokeColor=none;fillColor=none;align=right;verticalAlign=middle;whiteSpace=wrap;rounded=0;" vertex="1" parent="e3ecwIiKUaz8kYlqcEwL-1">
          <mxGeometry x="170" y="320" width="60" height="30" as="geometry" />
        </mxCell>
        <mxCell id="Sg9u4ug-r6xodj9LVgex-0" value="&lt;span style=&quot;font-size: 18px;&quot;&gt;&lt;b&gt;VARCHAR&lt;/b&gt;&lt;/span&gt;" style="text;html=1;strokeColor=none;fillColor=none;align=center;verticalAlign=middle;whiteSpace=wrap;rounded=0;" vertex="1" parent="e3ecwIiKUaz8kYlqcEwL-1">
          <mxGeometry x="250" y="320" width="100" height="30" as="geometry" />
        </mxCell>
        <mxCell id="Sg9u4ug-r6xodj9LVgex-1" value="&lt;span style=&quot;font-size: 18px;&quot;&gt;&lt;b&gt;Not Null&lt;/b&gt;&lt;/span&gt;" style="text;html=1;strokeColor=none;fillColor=none;align=center;verticalAlign=middle;whiteSpace=wrap;rounded=0;" vertex="1" parent="e3ecwIiKUaz8kYlqcEwL-1">
          <mxGeometry x="370" y="320" width="100" height="30" as="geometry" />
        </mxCell>
        <mxCell id="Sg9u4ug-r6xodj9LVgex-2" value="&lt;font style=&quot;font-size: 12px;&quot;&gt;本文&lt;/font&gt;" style="text;html=1;strokeColor=none;fillColor=none;align=left;verticalAlign=middle;whiteSpace=wrap;rounded=0;" vertex="1" parent="e3ecwIiKUaz8kYlqcEwL-1">
          <mxGeometry x="610" y="320" width="190" height="30" as="geometry" />
        </mxCell>
        <mxCell id="Sg9u4ug-r6xodj9LVgex-3" value="&lt;span style=&quot;font-size: 18px;&quot;&gt;&lt;b&gt;description&lt;/b&gt;&lt;/span&gt;" style="text;html=1;strokeColor=none;fillColor=none;align=right;verticalAlign=middle;whiteSpace=wrap;rounded=0;" vertex="1" parent="e3ecwIiKUaz8kYlqcEwL-1">
          <mxGeometry x="170" y="360" width="60" height="30" as="geometry" />
        </mxCell>
        <mxCell id="Sg9u4ug-r6xodj9LVgex-4" value="&lt;span style=&quot;font-size: 18px;&quot;&gt;&lt;b&gt;VARCHAR&lt;/b&gt;&lt;/span&gt;" style="text;html=1;strokeColor=none;fillColor=none;align=center;verticalAlign=middle;whiteSpace=wrap;rounded=0;" vertex="1" parent="e3ecwIiKUaz8kYlqcEwL-1">
          <mxGeometry x="250" y="360" width="100" height="30" as="geometry" />
        </mxCell>
        <mxCell id="Sg9u4ug-r6xodj9LVgex-5" value="&lt;span style=&quot;font-size: 18px;&quot;&gt;&lt;b&gt;Not Null&lt;/b&gt;&lt;/span&gt;" style="text;html=1;strokeColor=none;fillColor=none;align=center;verticalAlign=middle;whiteSpace=wrap;rounded=0;" vertex="1" parent="e3ecwIiKUaz8kYlqcEwL-1">
          <mxGeometry x="370" y="360" width="100" height="30" as="geometry" />
        </mxCell>
        <mxCell id="Sg9u4ug-r6xodj9LVgex-6" value="&lt;font style=&quot;font-size: 12px;&quot;&gt;問題に対する説明。解答後に表示&lt;/font&gt;" style="text;html=1;strokeColor=none;fillColor=none;align=left;verticalAlign=middle;whiteSpace=wrap;rounded=0;" vertex="1" parent="e3ecwIiKUaz8kYlqcEwL-1">
          <mxGeometry x="610" y="360" width="190" height="30" as="geometry" />
        </mxCell>
        <mxCell id="Sg9u4ug-r6xodj9LVgex-7" value="&lt;span style=&quot;font-size: 18px;&quot;&gt;&lt;b&gt;author_id&lt;/b&gt;&lt;/span&gt;" style="text;html=1;strokeColor=none;fillColor=none;align=right;verticalAlign=middle;whiteSpace=wrap;rounded=0;" vertex="1" parent="e3ecwIiKUaz8kYlqcEwL-1">
          <mxGeometry x="170" y="400" width="60" height="30" as="geometry" />
        </mxCell>
        <mxCell id="Sg9u4ug-r6xodj9LVgex-8" value="&lt;span style=&quot;font-size: 18px;&quot;&gt;&lt;b&gt;INT&lt;/b&gt;&lt;/span&gt;" style="text;html=1;strokeColor=none;fillColor=none;align=center;verticalAlign=middle;whiteSpace=wrap;rounded=0;" vertex="1" parent="e3ecwIiKUaz8kYlqcEwL-1">
          <mxGeometry x="250" y="400" width="100" height="30" as="geometry" />
        </mxCell>
        <mxCell id="gyBzYQZ8r0ixHvyxq9Gh-0" value="&lt;span style=&quot;font-size: 18px;&quot;&gt;&lt;b&gt;Not Null&lt;/b&gt;&lt;/span&gt;" style="text;html=1;strokeColor=none;fillColor=none;align=center;verticalAlign=middle;whiteSpace=wrap;rounded=0;" vertex="1" parent="e3ecwIiKUaz8kYlqcEwL-1">
          <mxGeometry x="370" y="400" width="100" height="30" as="geometry" />
        </mxCell>
        <mxCell id="gyBzYQZ8r0ixHvyxq9Gh-1" value="&lt;font style=&quot;font-size: 12px;&quot;&gt;作者を示すID。Usersを参照&lt;/font&gt;" style="text;html=1;strokeColor=none;fillColor=none;align=left;verticalAlign=middle;whiteSpace=wrap;rounded=0;" vertex="1" parent="e3ecwIiKUaz8kYlqcEwL-1">
          <mxGeometry x="610" y="400" width="190" height="30" as="geometry" />
        </mxCell>
        <mxCell id="uHPzbg5O2RTYSvxvvPhv-0" value="&lt;span style=&quot;font-size: 18px;&quot;&gt;&lt;b&gt;posted_date&lt;/b&gt;&lt;/span&gt;" style="text;html=1;strokeColor=none;fillColor=none;align=right;verticalAlign=middle;whiteSpace=wrap;rounded=0;" vertex="1" parent="e3ecwIiKUaz8kYlqcEwL-1">
          <mxGeometry x="170" y="440" width="60" height="30" as="geometry" />
        </mxCell>
        <mxCell id="uHPzbg5O2RTYSvxvvPhv-1" value="&lt;span style=&quot;font-size: 18px;&quot;&gt;&lt;b&gt;DATE&lt;/b&gt;&lt;/span&gt;" style="text;html=1;strokeColor=none;fillColor=none;align=center;verticalAlign=middle;whiteSpace=wrap;rounded=0;" vertex="1" parent="e3ecwIiKUaz8kYlqcEwL-1">
          <mxGeometry x="250" y="440" width="100" height="30" as="geometry" />
        </mxCell>
        <mxCell id="uHPzbg5O2RTYSvxvvPhv-2" value="&lt;span style=&quot;font-size: 18px;&quot;&gt;&lt;b&gt;Not Null&lt;/b&gt;&lt;/span&gt;" style="text;html=1;strokeColor=none;fillColor=none;align=center;verticalAlign=middle;whiteSpace=wrap;rounded=0;" vertex="1" parent="e3ecwIiKUaz8kYlqcEwL-1">
          <mxGeometry x="370" y="440" width="100" height="30" as="geometry" />
        </mxCell>
        <mxCell id="uHPzbg5O2RTYSvxvvPhv-3" value="投稿日" style="text;html=1;strokeColor=none;fillColor=none;align=left;verticalAlign=middle;whiteSpace=wrap;rounded=0;" vertex="1" parent="e3ecwIiKUaz8kYlqcEwL-1">
          <mxGeometry x="610" y="440" width="190" height="30" as="geometry" />
        </mxCell>
      </root>
    </mxGraphModel>
  </diagram>
  <diagram name="Choices" id="4p7FdAmvL5fIbu_usz6O">
    <mxGraphModel dx="712" dy="827" grid="1" gridSize="10" guides="1" tooltips="1" connect="1" arrows="1" fold="1" page="1" pageScale="1" pageWidth="827" pageHeight="1169" math="0" shadow="0">
      <root>
        <mxCell id="CF911DtklrtGMiHaxYTe-0" />
        <mxCell id="CF911DtklrtGMiHaxYTe-1" parent="CF911DtklrtGMiHaxYTe-0" />
        <mxCell id="CF911DtklrtGMiHaxYTe-2" value="&lt;h1&gt;Choices&lt;/h1&gt;&lt;div&gt;選択肢を示すマスタテーブル。&lt;br&gt;&lt;/div&gt;" style="text;html=1;strokeColor=none;fillColor=none;spacing=5;spacingTop=-20;whiteSpace=wrap;overflow=hidden;rounded=0;" vertex="1" parent="CF911DtklrtGMiHaxYTe-1">
          <mxGeometry x="40" y="40" width="760" height="120" as="geometry" />
        </mxCell>
        <mxCell id="CF911DtklrtGMiHaxYTe-3" value="&lt;span style=&quot;font-size: 24px;&quot;&gt;&lt;b&gt;カラム&lt;/b&gt;&lt;/span&gt;" style="text;html=1;strokeColor=none;fillColor=none;align=center;verticalAlign=middle;whiteSpace=wrap;rounded=0;" vertex="1" parent="CF911DtklrtGMiHaxYTe-1">
          <mxGeometry x="40" y="160" width="100" height="30" as="geometry" />
        </mxCell>
        <mxCell id="CF911DtklrtGMiHaxYTe-4" style="edgeStyle=orthogonalEdgeStyle;rounded=0;orthogonalLoop=1;jettySize=auto;html=1;exitX=0.5;exitY=1;exitDx=0;exitDy=0;" edge="1" parent="CF911DtklrtGMiHaxYTe-1" source="CF911DtklrtGMiHaxYTe-3" target="CF911DtklrtGMiHaxYTe-3">
          <mxGeometry relative="1" as="geometry" />
        </mxCell>
        <mxCell id="CF911DtklrtGMiHaxYTe-5" value="&lt;span style=&quot;font-size: 18px;&quot;&gt;&lt;b&gt;id&lt;/b&gt;&lt;/span&gt;" style="text;html=1;strokeColor=none;fillColor=none;align=right;verticalAlign=middle;whiteSpace=wrap;rounded=0;" vertex="1" parent="CF911DtklrtGMiHaxYTe-1">
          <mxGeometry x="170" y="240" width="60" height="30" as="geometry" />
        </mxCell>
        <mxCell id="CF911DtklrtGMiHaxYTe-6" value="" style="endArrow=none;html=1;rounded=0;" edge="1" parent="CF911DtklrtGMiHaxYTe-1">
          <mxGeometry width="50" height="50" relative="1" as="geometry">
            <mxPoint x="240" y="750" as="sourcePoint" />
            <mxPoint x="240" y="180" as="targetPoint" />
          </mxGeometry>
        </mxCell>
        <mxCell id="CF911DtklrtGMiHaxYTe-7" value="&lt;b style=&quot;&quot;&gt;&lt;font style=&quot;font-size: 18px;&quot;&gt;カラム名&lt;/font&gt;&lt;/b&gt;" style="text;html=1;strokeColor=none;fillColor=none;align=right;verticalAlign=middle;whiteSpace=wrap;rounded=0;" vertex="1" parent="CF911DtklrtGMiHaxYTe-1">
          <mxGeometry x="130" y="200" width="100" height="30" as="geometry" />
        </mxCell>
        <mxCell id="CF911DtklrtGMiHaxYTe-8" value="" style="endArrow=none;html=1;rounded=0;" edge="1" parent="CF911DtklrtGMiHaxYTe-1">
          <mxGeometry width="50" height="50" relative="1" as="geometry">
            <mxPoint x="155" y="230" as="sourcePoint" />
            <mxPoint x="800" y="230" as="targetPoint" />
          </mxGeometry>
        </mxCell>
        <mxCell id="CF911DtklrtGMiHaxYTe-9" value="" style="endArrow=none;html=1;rounded=0;" edge="1" parent="CF911DtklrtGMiHaxYTe-1">
          <mxGeometry width="50" height="50" relative="1" as="geometry">
            <mxPoint x="360" y="750" as="sourcePoint" />
            <mxPoint x="360" y="180" as="targetPoint" />
          </mxGeometry>
        </mxCell>
        <mxCell id="CF911DtklrtGMiHaxYTe-10" value="" style="endArrow=none;html=1;rounded=0;" edge="1" parent="CF911DtklrtGMiHaxYTe-1">
          <mxGeometry width="50" height="50" relative="1" as="geometry">
            <mxPoint x="480" y="750" as="sourcePoint" />
            <mxPoint x="480" y="180" as="targetPoint" />
          </mxGeometry>
        </mxCell>
        <mxCell id="CF911DtklrtGMiHaxYTe-11" value="" style="endArrow=none;html=1;rounded=0;" edge="1" parent="CF911DtklrtGMiHaxYTe-1">
          <mxGeometry width="50" height="50" relative="1" as="geometry">
            <mxPoint x="600" y="750" as="sourcePoint" />
            <mxPoint x="600" y="180" as="targetPoint" />
          </mxGeometry>
        </mxCell>
        <mxCell id="CF911DtklrtGMiHaxYTe-12" value="&lt;span style=&quot;font-size: 18px;&quot;&gt;&lt;b&gt;データ型&lt;/b&gt;&lt;/span&gt;" style="text;html=1;strokeColor=none;fillColor=none;align=center;verticalAlign=middle;whiteSpace=wrap;rounded=0;" vertex="1" parent="CF911DtklrtGMiHaxYTe-1">
          <mxGeometry x="250" y="200" width="100" height="30" as="geometry" />
        </mxCell>
        <mxCell id="CF911DtklrtGMiHaxYTe-13" value="&lt;span style=&quot;font-size: 18px;&quot;&gt;&lt;b&gt;Null許容&lt;/b&gt;&lt;/span&gt;" style="text;html=1;strokeColor=none;fillColor=none;align=center;verticalAlign=middle;whiteSpace=wrap;rounded=0;" vertex="1" parent="CF911DtklrtGMiHaxYTe-1">
          <mxGeometry x="370" y="200" width="100" height="30" as="geometry" />
        </mxCell>
        <mxCell id="CF911DtklrtGMiHaxYTe-14" value="&lt;span style=&quot;font-size: 18px;&quot;&gt;&lt;b&gt;デフォルト&lt;/b&gt;&lt;/span&gt;" style="text;html=1;strokeColor=none;fillColor=none;align=center;verticalAlign=middle;whiteSpace=wrap;rounded=0;" vertex="1" parent="CF911DtklrtGMiHaxYTe-1">
          <mxGeometry x="490" y="200" width="100" height="30" as="geometry" />
        </mxCell>
        <mxCell id="CF911DtklrtGMiHaxYTe-15" value="&lt;span style=&quot;font-size: 18px;&quot;&gt;&lt;b&gt;備考&lt;/b&gt;&lt;/span&gt;" style="text;html=1;strokeColor=none;fillColor=none;align=center;verticalAlign=middle;whiteSpace=wrap;rounded=0;" vertex="1" parent="CF911DtklrtGMiHaxYTe-1">
          <mxGeometry x="650" y="200" width="100" height="30" as="geometry" />
        </mxCell>
        <mxCell id="CF911DtklrtGMiHaxYTe-16" value="&lt;span style=&quot;font-size: 18px;&quot;&gt;&lt;b&gt;INT&lt;/b&gt;&lt;/span&gt;" style="text;html=1;strokeColor=none;fillColor=none;align=center;verticalAlign=middle;whiteSpace=wrap;rounded=0;" vertex="1" parent="CF911DtklrtGMiHaxYTe-1">
          <mxGeometry x="250" y="240" width="100" height="30" as="geometry" />
        </mxCell>
        <mxCell id="CF911DtklrtGMiHaxYTe-17" value="&lt;span style=&quot;font-size: 18px;&quot;&gt;&lt;b&gt;Not Null&lt;/b&gt;&lt;/span&gt;" style="text;html=1;strokeColor=none;fillColor=none;align=center;verticalAlign=middle;whiteSpace=wrap;rounded=0;" vertex="1" parent="CF911DtklrtGMiHaxYTe-1">
          <mxGeometry x="370" y="240" width="100" height="30" as="geometry" />
        </mxCell>
        <mxCell id="CF911DtklrtGMiHaxYTe-18" value="&lt;span style=&quot;font-size: 18px;&quot;&gt;&lt;b&gt;PK&lt;/b&gt;&lt;/span&gt;" style="text;html=1;strokeColor=none;fillColor=none;align=center;verticalAlign=middle;whiteSpace=wrap;rounded=0;" vertex="1" parent="CF911DtklrtGMiHaxYTe-1">
          <mxGeometry x="10" y="240" width="100" height="30" as="geometry" />
        </mxCell>
        <mxCell id="CF911DtklrtGMiHaxYTe-19" value="&lt;span style=&quot;font-size: 18px;&quot;&gt;&lt;b&gt;FK&lt;/b&gt;&lt;/span&gt;" style="text;html=1;strokeColor=none;fillColor=none;align=center;verticalAlign=middle;whiteSpace=wrap;rounded=0;" vertex="1" parent="CF911DtklrtGMiHaxYTe-1">
          <mxGeometry x="10" y="360" width="100" height="30" as="geometry" />
        </mxCell>
        <mxCell id="CF911DtklrtGMiHaxYTe-20" value="&lt;font style=&quot;font-size: 12px;&quot;&gt;AUTO_INCREMENT&lt;/font&gt;" style="text;html=1;strokeColor=none;fillColor=none;align=left;verticalAlign=middle;whiteSpace=wrap;rounded=0;" vertex="1" parent="CF911DtklrtGMiHaxYTe-1">
          <mxGeometry x="610" y="240" width="190" height="30" as="geometry" />
        </mxCell>
        <mxCell id="CF911DtklrtGMiHaxYTe-21" value="&lt;span style=&quot;font-size: 18px;&quot;&gt;&lt;b&gt;is_answer&lt;/b&gt;&lt;/span&gt;" style="text;html=1;strokeColor=none;fillColor=none;align=right;verticalAlign=middle;whiteSpace=wrap;rounded=0;" vertex="1" parent="CF911DtklrtGMiHaxYTe-1">
          <mxGeometry x="170" y="320" width="60" height="30" as="geometry" />
        </mxCell>
        <mxCell id="CF911DtklrtGMiHaxYTe-22" value="&lt;span style=&quot;font-size: 18px;&quot;&gt;&lt;b&gt;BOOLEAN&lt;/b&gt;&lt;/span&gt;" style="text;html=1;strokeColor=none;fillColor=none;align=center;verticalAlign=middle;whiteSpace=wrap;rounded=0;" vertex="1" parent="CF911DtklrtGMiHaxYTe-1">
          <mxGeometry x="250" y="320" width="100" height="30" as="geometry" />
        </mxCell>
        <mxCell id="CF911DtklrtGMiHaxYTe-23" value="&lt;font style=&quot;font-size: 12px;&quot;&gt;答えであるかどうか&lt;/font&gt;" style="text;html=1;strokeColor=none;fillColor=none;align=left;verticalAlign=middle;whiteSpace=wrap;rounded=0;" vertex="1" parent="CF911DtklrtGMiHaxYTe-1">
          <mxGeometry x="610" y="320" width="190" height="30" as="geometry" />
        </mxCell>
        <mxCell id="MwLrKFvNGny0rH03kEh1-0" value="&lt;span style=&quot;font-size: 18px;&quot;&gt;&lt;b&gt;Not Null&lt;/b&gt;&lt;/span&gt;" style="text;html=1;strokeColor=none;fillColor=none;align=center;verticalAlign=middle;whiteSpace=wrap;rounded=0;" vertex="1" parent="CF911DtklrtGMiHaxYTe-1">
          <mxGeometry x="370" y="320" width="100" height="30" as="geometry" />
        </mxCell>
        <mxCell id="MwLrKFvNGny0rH03kEh1-1" value="&lt;span style=&quot;font-size: 18px;&quot;&gt;&lt;b&gt;quiz_id&lt;/b&gt;&lt;/span&gt;" style="text;html=1;strokeColor=none;fillColor=none;align=right;verticalAlign=middle;whiteSpace=wrap;rounded=0;" vertex="1" parent="CF911DtklrtGMiHaxYTe-1">
          <mxGeometry x="170" y="360" width="60" height="30" as="geometry" />
        </mxCell>
        <mxCell id="MwLrKFvNGny0rH03kEh1-2" value="&lt;span style=&quot;font-size: 18px;&quot;&gt;&lt;b&gt;INT&lt;/b&gt;&lt;/span&gt;" style="text;html=1;strokeColor=none;fillColor=none;align=center;verticalAlign=middle;whiteSpace=wrap;rounded=0;" vertex="1" parent="CF911DtklrtGMiHaxYTe-1">
          <mxGeometry x="250" y="360" width="100" height="30" as="geometry" />
        </mxCell>
        <mxCell id="MwLrKFvNGny0rH03kEh1-3" value="&lt;font style=&quot;font-size: 12px;&quot;&gt;問題を示すID。Quizzesを参照&lt;/font&gt;" style="text;html=1;strokeColor=none;fillColor=none;align=left;verticalAlign=middle;whiteSpace=wrap;rounded=0;" vertex="1" parent="CF911DtklrtGMiHaxYTe-1">
          <mxGeometry x="610" y="360" width="190" height="30" as="geometry" />
        </mxCell>
        <mxCell id="MwLrKFvNGny0rH03kEh1-4" value="&lt;span style=&quot;font-size: 18px;&quot;&gt;&lt;b&gt;Not Null&lt;/b&gt;&lt;/span&gt;" style="text;html=1;strokeColor=none;fillColor=none;align=center;verticalAlign=middle;whiteSpace=wrap;rounded=0;" vertex="1" parent="CF911DtklrtGMiHaxYTe-1">
          <mxGeometry x="370" y="360" width="100" height="30" as="geometry" />
        </mxCell>
        <mxCell id="MwLrKFvNGny0rH03kEh1-5" value="&lt;span style=&quot;font-size: 18px;&quot;&gt;&lt;b&gt;content&lt;/b&gt;&lt;/span&gt;" style="text;html=1;strokeColor=none;fillColor=none;align=right;verticalAlign=middle;whiteSpace=wrap;rounded=0;" vertex="1" parent="CF911DtklrtGMiHaxYTe-1">
          <mxGeometry x="170" y="280" width="60" height="30" as="geometry" />
        </mxCell>
        <mxCell id="MwLrKFvNGny0rH03kEh1-6" value="&lt;span style=&quot;font-size: 18px;&quot;&gt;&lt;b&gt;VARCHAR&lt;/b&gt;&lt;/span&gt;" style="text;html=1;strokeColor=none;fillColor=none;align=center;verticalAlign=middle;whiteSpace=wrap;rounded=0;" vertex="1" parent="CF911DtklrtGMiHaxYTe-1">
          <mxGeometry x="250" y="280" width="100" height="30" as="geometry" />
        </mxCell>
        <mxCell id="MwLrKFvNGny0rH03kEh1-7" value="&lt;font style=&quot;font-size: 12px;&quot;&gt;選択肢の内容&lt;/font&gt;" style="text;html=1;strokeColor=none;fillColor=none;align=left;verticalAlign=middle;whiteSpace=wrap;rounded=0;" vertex="1" parent="CF911DtklrtGMiHaxYTe-1">
          <mxGeometry x="610" y="280" width="190" height="30" as="geometry" />
        </mxCell>
        <mxCell id="MwLrKFvNGny0rH03kEh1-8" value="&lt;span style=&quot;font-size: 18px;&quot;&gt;&lt;b&gt;Not Null&lt;/b&gt;&lt;/span&gt;" style="text;html=1;strokeColor=none;fillColor=none;align=center;verticalAlign=middle;whiteSpace=wrap;rounded=0;" vertex="1" parent="CF911DtklrtGMiHaxYTe-1">
          <mxGeometry x="370" y="280" width="100" height="30" as="geometry" />
        </mxCell>
      </root>
    </mxGraphModel>
  </diagram>
  <diagram name="Responses" id="TxJC1vg1vjD6AfMNvSp2">
    <mxGraphModel dx="712" dy="827" grid="1" gridSize="10" guides="1" tooltips="1" connect="1" arrows="1" fold="1" page="1" pageScale="1" pageWidth="827" pageHeight="1169" math="0" shadow="0">
      <root>
        <mxCell id="tnPf5-97AMzuog5zsfl--0" />
        <mxCell id="tnPf5-97AMzuog5zsfl--1" parent="tnPf5-97AMzuog5zsfl--0" />
        <mxCell id="tnPf5-97AMzuog5zsfl--2" value="&lt;h1&gt;Responses&lt;/h1&gt;&lt;div&gt;ユーザの回答を示すトランザクションテーブル。&lt;br&gt;&lt;/div&gt;" style="text;html=1;strokeColor=none;fillColor=none;spacing=5;spacingTop=-20;whiteSpace=wrap;overflow=hidden;rounded=0;" vertex="1" parent="tnPf5-97AMzuog5zsfl--1">
          <mxGeometry x="40" y="40" width="760" height="120" as="geometry" />
        </mxCell>
        <mxCell id="tnPf5-97AMzuog5zsfl--3" value="&lt;span style=&quot;font-size: 24px;&quot;&gt;&lt;b&gt;カラム&lt;/b&gt;&lt;/span&gt;" style="text;html=1;strokeColor=none;fillColor=none;align=center;verticalAlign=middle;whiteSpace=wrap;rounded=0;" vertex="1" parent="tnPf5-97AMzuog5zsfl--1">
          <mxGeometry x="40" y="160" width="100" height="30" as="geometry" />
        </mxCell>
        <mxCell id="tnPf5-97AMzuog5zsfl--4" style="edgeStyle=orthogonalEdgeStyle;rounded=0;orthogonalLoop=1;jettySize=auto;html=1;exitX=0.5;exitY=1;exitDx=0;exitDy=0;" edge="1" parent="tnPf5-97AMzuog5zsfl--1" source="tnPf5-97AMzuog5zsfl--3" target="tnPf5-97AMzuog5zsfl--3">
          <mxGeometry relative="1" as="geometry" />
        </mxCell>
        <mxCell id="tnPf5-97AMzuog5zsfl--5" value="&lt;span style=&quot;font-size: 18px;&quot;&gt;&lt;b&gt;id&lt;/b&gt;&lt;/span&gt;" style="text;html=1;strokeColor=none;fillColor=none;align=right;verticalAlign=middle;whiteSpace=wrap;rounded=0;" vertex="1" parent="tnPf5-97AMzuog5zsfl--1">
          <mxGeometry x="170" y="240" width="60" height="30" as="geometry" />
        </mxCell>
        <mxCell id="tnPf5-97AMzuog5zsfl--6" value="" style="endArrow=none;html=1;rounded=0;" edge="1" parent="tnPf5-97AMzuog5zsfl--1">
          <mxGeometry width="50" height="50" relative="1" as="geometry">
            <mxPoint x="240" y="750" as="sourcePoint" />
            <mxPoint x="240" y="180" as="targetPoint" />
          </mxGeometry>
        </mxCell>
        <mxCell id="tnPf5-97AMzuog5zsfl--7" value="&lt;b style=&quot;&quot;&gt;&lt;font style=&quot;font-size: 18px;&quot;&gt;カラム名&lt;/font&gt;&lt;/b&gt;" style="text;html=1;strokeColor=none;fillColor=none;align=right;verticalAlign=middle;whiteSpace=wrap;rounded=0;" vertex="1" parent="tnPf5-97AMzuog5zsfl--1">
          <mxGeometry x="130" y="200" width="100" height="30" as="geometry" />
        </mxCell>
        <mxCell id="tnPf5-97AMzuog5zsfl--8" value="" style="endArrow=none;html=1;rounded=0;" edge="1" parent="tnPf5-97AMzuog5zsfl--1">
          <mxGeometry width="50" height="50" relative="1" as="geometry">
            <mxPoint x="155" y="230" as="sourcePoint" />
            <mxPoint x="800" y="230" as="targetPoint" />
          </mxGeometry>
        </mxCell>
        <mxCell id="tnPf5-97AMzuog5zsfl--9" value="" style="endArrow=none;html=1;rounded=0;" edge="1" parent="tnPf5-97AMzuog5zsfl--1">
          <mxGeometry width="50" height="50" relative="1" as="geometry">
            <mxPoint x="360" y="750" as="sourcePoint" />
            <mxPoint x="360" y="180" as="targetPoint" />
          </mxGeometry>
        </mxCell>
        <mxCell id="tnPf5-97AMzuog5zsfl--10" value="" style="endArrow=none;html=1;rounded=0;" edge="1" parent="tnPf5-97AMzuog5zsfl--1">
          <mxGeometry width="50" height="50" relative="1" as="geometry">
            <mxPoint x="480" y="750" as="sourcePoint" />
            <mxPoint x="480" y="180" as="targetPoint" />
          </mxGeometry>
        </mxCell>
        <mxCell id="tnPf5-97AMzuog5zsfl--11" value="" style="endArrow=none;html=1;rounded=0;" edge="1" parent="tnPf5-97AMzuog5zsfl--1">
          <mxGeometry width="50" height="50" relative="1" as="geometry">
            <mxPoint x="600" y="750" as="sourcePoint" />
            <mxPoint x="600" y="180" as="targetPoint" />
          </mxGeometry>
        </mxCell>
        <mxCell id="tnPf5-97AMzuog5zsfl--12" value="&lt;span style=&quot;font-size: 18px;&quot;&gt;&lt;b&gt;データ型&lt;/b&gt;&lt;/span&gt;" style="text;html=1;strokeColor=none;fillColor=none;align=center;verticalAlign=middle;whiteSpace=wrap;rounded=0;" vertex="1" parent="tnPf5-97AMzuog5zsfl--1">
          <mxGeometry x="250" y="200" width="100" height="30" as="geometry" />
        </mxCell>
        <mxCell id="tnPf5-97AMzuog5zsfl--13" value="&lt;span style=&quot;font-size: 18px;&quot;&gt;&lt;b&gt;Null許容&lt;/b&gt;&lt;/span&gt;" style="text;html=1;strokeColor=none;fillColor=none;align=center;verticalAlign=middle;whiteSpace=wrap;rounded=0;" vertex="1" parent="tnPf5-97AMzuog5zsfl--1">
          <mxGeometry x="370" y="200" width="100" height="30" as="geometry" />
        </mxCell>
        <mxCell id="tnPf5-97AMzuog5zsfl--14" value="&lt;span style=&quot;font-size: 18px;&quot;&gt;&lt;b&gt;デフォルト&lt;/b&gt;&lt;/span&gt;" style="text;html=1;strokeColor=none;fillColor=none;align=center;verticalAlign=middle;whiteSpace=wrap;rounded=0;" vertex="1" parent="tnPf5-97AMzuog5zsfl--1">
          <mxGeometry x="490" y="200" width="100" height="30" as="geometry" />
        </mxCell>
        <mxCell id="tnPf5-97AMzuog5zsfl--15" value="&lt;span style=&quot;font-size: 18px;&quot;&gt;&lt;b&gt;備考&lt;/b&gt;&lt;/span&gt;" style="text;html=1;strokeColor=none;fillColor=none;align=center;verticalAlign=middle;whiteSpace=wrap;rounded=0;" vertex="1" parent="tnPf5-97AMzuog5zsfl--1">
          <mxGeometry x="650" y="200" width="100" height="30" as="geometry" />
        </mxCell>
        <mxCell id="tnPf5-97AMzuog5zsfl--16" value="&lt;span style=&quot;font-size: 18px;&quot;&gt;&lt;b&gt;INT&lt;/b&gt;&lt;/span&gt;" style="text;html=1;strokeColor=none;fillColor=none;align=center;verticalAlign=middle;whiteSpace=wrap;rounded=0;" vertex="1" parent="tnPf5-97AMzuog5zsfl--1">
          <mxGeometry x="250" y="240" width="100" height="30" as="geometry" />
        </mxCell>
        <mxCell id="tnPf5-97AMzuog5zsfl--17" value="&lt;span style=&quot;font-size: 18px;&quot;&gt;&lt;b&gt;Not Null&lt;/b&gt;&lt;/span&gt;" style="text;html=1;strokeColor=none;fillColor=none;align=center;verticalAlign=middle;whiteSpace=wrap;rounded=0;" vertex="1" parent="tnPf5-97AMzuog5zsfl--1">
          <mxGeometry x="370" y="240" width="100" height="30" as="geometry" />
        </mxCell>
        <mxCell id="tnPf5-97AMzuog5zsfl--18" value="&lt;span style=&quot;font-size: 18px;&quot;&gt;&lt;b&gt;PK&lt;/b&gt;&lt;/span&gt;" style="text;html=1;strokeColor=none;fillColor=none;align=center;verticalAlign=middle;whiteSpace=wrap;rounded=0;" vertex="1" parent="tnPf5-97AMzuog5zsfl--1">
          <mxGeometry x="10" y="240" width="100" height="30" as="geometry" />
        </mxCell>
        <mxCell id="tnPf5-97AMzuog5zsfl--19" value="&lt;span style=&quot;font-size: 18px;&quot;&gt;&lt;b&gt;FK&lt;/b&gt;&lt;/span&gt;" style="text;html=1;strokeColor=none;fillColor=none;align=center;verticalAlign=middle;whiteSpace=wrap;rounded=0;" vertex="1" parent="tnPf5-97AMzuog5zsfl--1">
          <mxGeometry x="10" y="280" width="100" height="30" as="geometry" />
        </mxCell>
        <mxCell id="tnPf5-97AMzuog5zsfl--20" value="&lt;font style=&quot;font-size: 12px;&quot;&gt;AUTO_INCREMENT&lt;/font&gt;" style="text;html=1;strokeColor=none;fillColor=none;align=left;verticalAlign=middle;whiteSpace=wrap;rounded=0;" vertex="1" parent="tnPf5-97AMzuog5zsfl--1">
          <mxGeometry x="610" y="240" width="190" height="30" as="geometry" />
        </mxCell>
        <mxCell id="tnPf5-97AMzuog5zsfl--21" value="&lt;span style=&quot;font-size: 18px;&quot;&gt;&lt;b&gt;quiz_id&lt;/b&gt;&lt;/span&gt;" style="text;html=1;strokeColor=none;fillColor=none;align=right;verticalAlign=middle;whiteSpace=wrap;rounded=0;" vertex="1" parent="tnPf5-97AMzuog5zsfl--1">
          <mxGeometry x="170" y="280" width="60" height="30" as="geometry" />
        </mxCell>
        <mxCell id="tnPf5-97AMzuog5zsfl--22" value="&lt;span style=&quot;font-size: 18px;&quot;&gt;&lt;b&gt;INT&lt;/b&gt;&lt;/span&gt;" style="text;html=1;strokeColor=none;fillColor=none;align=center;verticalAlign=middle;whiteSpace=wrap;rounded=0;" vertex="1" parent="tnPf5-97AMzuog5zsfl--1">
          <mxGeometry x="250" y="280" width="100" height="30" as="geometry" />
        </mxCell>
        <mxCell id="tnPf5-97AMzuog5zsfl--23" value="&lt;font style=&quot;font-size: 12px;&quot;&gt;回答したクイズのID。&lt;br&gt;Quizzesを参照&lt;/font&gt;" style="text;html=1;strokeColor=none;fillColor=none;align=left;verticalAlign=middle;whiteSpace=wrap;rounded=0;" vertex="1" parent="tnPf5-97AMzuog5zsfl--1">
          <mxGeometry x="610" y="280" width="190" height="40" as="geometry" />
        </mxCell>
        <mxCell id="j-y5bTL0U62icKBmlZ9J-0" value="&lt;span style=&quot;font-size: 18px;&quot;&gt;&lt;b&gt;Not Null&lt;/b&gt;&lt;/span&gt;" style="text;html=1;strokeColor=none;fillColor=none;align=center;verticalAlign=middle;whiteSpace=wrap;rounded=0;" vertex="1" parent="tnPf5-97AMzuog5zsfl--1">
          <mxGeometry x="370" y="280" width="100" height="30" as="geometry" />
        </mxCell>
        <mxCell id="j-y5bTL0U62icKBmlZ9J-1" value="&lt;span style=&quot;font-size: 18px;&quot;&gt;&lt;b&gt;FK&lt;/b&gt;&lt;/span&gt;" style="text;html=1;strokeColor=none;fillColor=none;align=center;verticalAlign=middle;whiteSpace=wrap;rounded=0;" vertex="1" parent="tnPf5-97AMzuog5zsfl--1">
          <mxGeometry x="10" y="320" width="100" height="30" as="geometry" />
        </mxCell>
        <mxCell id="j-y5bTL0U62icKBmlZ9J-2" value="&lt;span style=&quot;font-size: 18px;&quot;&gt;&lt;b&gt;choice_id&lt;/b&gt;&lt;/span&gt;" style="text;html=1;strokeColor=none;fillColor=none;align=right;verticalAlign=middle;whiteSpace=wrap;rounded=0;" vertex="1" parent="tnPf5-97AMzuog5zsfl--1">
          <mxGeometry x="170" y="320" width="60" height="30" as="geometry" />
        </mxCell>
        <mxCell id="j-y5bTL0U62icKBmlZ9J-3" value="&lt;span style=&quot;font-size: 18px;&quot;&gt;&lt;b&gt;INT&lt;/b&gt;&lt;/span&gt;" style="text;html=1;strokeColor=none;fillColor=none;align=center;verticalAlign=middle;whiteSpace=wrap;rounded=0;" vertex="1" parent="tnPf5-97AMzuog5zsfl--1">
          <mxGeometry x="250" y="320" width="100" height="30" as="geometry" />
        </mxCell>
        <mxCell id="j-y5bTL0U62icKBmlZ9J-4" value="選択した選択肢のID。&lt;br&gt;Choicesを参照" style="text;html=1;strokeColor=none;fillColor=none;align=left;verticalAlign=middle;whiteSpace=wrap;rounded=0;" vertex="1" parent="tnPf5-97AMzuog5zsfl--1">
          <mxGeometry x="610" y="320" width="190" height="40" as="geometry" />
        </mxCell>
        <mxCell id="j-y5bTL0U62icKBmlZ9J-5" value="&lt;span style=&quot;font-size: 18px;&quot;&gt;&lt;b&gt;Not Null&lt;/b&gt;&lt;/span&gt;" style="text;html=1;strokeColor=none;fillColor=none;align=center;verticalAlign=middle;whiteSpace=wrap;rounded=0;" vertex="1" parent="tnPf5-97AMzuog5zsfl--1">
          <mxGeometry x="370" y="320" width="100" height="30" as="geometry" />
        </mxCell>
        <mxCell id="xZ4om5oiVygeoYm3RYxb-0" value="&lt;span style=&quot;font-size: 18px;&quot;&gt;&lt;b&gt;FK&lt;/b&gt;&lt;/span&gt;" style="text;html=1;strokeColor=none;fillColor=none;align=center;verticalAlign=middle;whiteSpace=wrap;rounded=0;" vertex="1" parent="tnPf5-97AMzuog5zsfl--1">
          <mxGeometry x="10" y="360" width="100" height="30" as="geometry" />
        </mxCell>
        <mxCell id="xZ4om5oiVygeoYm3RYxb-1" value="&lt;span style=&quot;font-size: 18px;&quot;&gt;&lt;b&gt;user_id&lt;/b&gt;&lt;/span&gt;" style="text;html=1;strokeColor=none;fillColor=none;align=right;verticalAlign=middle;whiteSpace=wrap;rounded=0;" vertex="1" parent="tnPf5-97AMzuog5zsfl--1">
          <mxGeometry x="170" y="360" width="60" height="30" as="geometry" />
        </mxCell>
        <mxCell id="xZ4om5oiVygeoYm3RYxb-2" value="&lt;span style=&quot;font-size: 18px;&quot;&gt;&lt;b&gt;INT&lt;/b&gt;&lt;/span&gt;" style="text;html=1;strokeColor=none;fillColor=none;align=center;verticalAlign=middle;whiteSpace=wrap;rounded=0;" vertex="1" parent="tnPf5-97AMzuog5zsfl--1">
          <mxGeometry x="250" y="360" width="100" height="30" as="geometry" />
        </mxCell>
        <mxCell id="xZ4om5oiVygeoYm3RYxb-3" value="回答したユーザのID。&lt;br&gt;Usersを参照" style="text;html=1;strokeColor=none;fillColor=none;align=left;verticalAlign=middle;whiteSpace=wrap;rounded=0;" vertex="1" parent="tnPf5-97AMzuog5zsfl--1">
          <mxGeometry x="610" y="360" width="190" height="40" as="geometry" />
        </mxCell>
        <mxCell id="xZ4om5oiVygeoYm3RYxb-4" value="&lt;span style=&quot;font-size: 18px;&quot;&gt;&lt;b&gt;Not Null&lt;/b&gt;&lt;/span&gt;" style="text;html=1;strokeColor=none;fillColor=none;align=center;verticalAlign=middle;whiteSpace=wrap;rounded=0;" vertex="1" parent="tnPf5-97AMzuog5zsfl--1">
          <mxGeometry x="370" y="360" width="100" height="30" as="geometry" />
        </mxCell>
        <mxCell id="xZ4om5oiVygeoYm3RYxb-6" value="&lt;span style=&quot;font-size: 18px;&quot;&gt;&lt;b&gt;response_date&lt;/b&gt;&lt;/span&gt;" style="text;html=1;strokeColor=none;fillColor=none;align=right;verticalAlign=middle;whiteSpace=wrap;rounded=0;" vertex="1" parent="tnPf5-97AMzuog5zsfl--1">
          <mxGeometry x="170" y="400" width="60" height="30" as="geometry" />
        </mxCell>
        <mxCell id="xZ4om5oiVygeoYm3RYxb-7" value="&lt;span style=&quot;font-size: 18px;&quot;&gt;&lt;b&gt;DATE&lt;/b&gt;&lt;/span&gt;" style="text;html=1;strokeColor=none;fillColor=none;align=center;verticalAlign=middle;whiteSpace=wrap;rounded=0;" vertex="1" parent="tnPf5-97AMzuog5zsfl--1">
          <mxGeometry x="250" y="400" width="100" height="30" as="geometry" />
        </mxCell>
        <mxCell id="xZ4om5oiVygeoYm3RYxb-8" value="回答した日付" style="text;html=1;strokeColor=none;fillColor=none;align=left;verticalAlign=middle;whiteSpace=wrap;rounded=0;" vertex="1" parent="tnPf5-97AMzuog5zsfl--1">
          <mxGeometry x="610" y="400" width="190" height="40" as="geometry" />
        </mxCell>
        <mxCell id="xZ4om5oiVygeoYm3RYxb-9" value="&lt;span style=&quot;font-size: 18px;&quot;&gt;&lt;b&gt;Not Null&lt;/b&gt;&lt;/span&gt;" style="text;html=1;strokeColor=none;fillColor=none;align=center;verticalAlign=middle;whiteSpace=wrap;rounded=0;" vertex="1" parent="tnPf5-97AMzuog5zsfl--1">
          <mxGeometry x="370" y="400" width="100" height="30" as="geometry" />
        </mxCell>
      </root>
    </mxGraphModel>
  </diagram>
</mxfile>
